<?xml version="1.0" encoding="UTF-8"?>
<svg width="317px" height="142px" viewBox="0 0 317 142" version="1.1" xmlns="http://www.w3.org/2000/svg" xmlns:xlink="http://www.w3.org/1999/xlink">
    <!-- Generator: Sketch 51.2 (57519) - http://www.bohemiancoding.com/sketch -->
    <title>Autopay_Deutschland_Logo_Web (1)</title>
    <desc>Created with Sketch.</desc>
    <defs></defs>
    <g id="Autopay_Deutschland_Logo_Web-(1)" stroke="none" stroke-width="1" fill="none" fill-rule="evenodd">
        <path d="M114.12,80.26 L111.939,80.26 L115.223,56.877 C115.276,56.225 115.038,55.819 114.83,55.593 C114.622,55.367 114.236,55.098 113.585,55.098 L108.568,55.098 L106.204,72.178 C106.197,72.269 106.104,72.834 104.909,75.024 C104.431,75.874 103.854,76.724 103.194,77.554 C102.577,78.33 101.789,78.987 100.782,79.562 C99.823,80.113 98.841,80.38 97.78,80.38 C96.133,80.38 94.983,79.88 94.247,78.823 C93.668,78.053 93.375,77.017 93.375,75.745 C93.375,75.264 93.411,74.789 93.485,74.286 L95.732,58.732 C95.782,58.433 95.804,58.18 95.804,57.979 C95.804,57.113 95.482,55.098 92.508,55.098 L89.288,55.098 L86.556,75.21 C86.472,75.903 86.429,76.599 86.429,77.281 C86.429,79.716 87.121,81.798 88.5,83.487 C90.271,85.564 92.915,86.619 96.359,86.619 C98.066,86.619 99.657,86.289 101.087,85.64 C102.491,85.004 103.607,84.267 104.404,83.448 C104.657,83.189 104.904,82.906 105.147,82.599 C105.101,82.887 105.081,83.128 105.081,83.324 C105.081,84.19 105.402,86.205 108.376,86.205 L113.527,86.205 C114.549,86.205 115.26,85.568 115.333,84.641 L115.695,82.041 C115.75,81.377 115.513,80.968 115.304,80.741 C115.102,80.521 114.732,80.26 114.12,80.26" id="Fill-1" fill="#333F56"></path>
        <path d="M135.839,55.098 L129.462,55.098 L130.181,50.249 C130.286,49.536 130.051,49.088 129.835,48.837 C129.619,48.587 129.212,48.29 128.497,48.29 L125.181,48.29 C124.146,48.29 123.408,48.931 123.255,49.97 L119.704,75.423 C119.579,76.282 119.516,77.107 119.516,77.874 C119.516,80.273 120.152,82.241 121.402,83.716 C123.012,85.642 125.498,86.619 128.79,86.619 C131.256,86.619 133.574,85.77 135.701,84.081 C136.724,83.226 136.654,82.265 136.254,81.661 L134.998,79.728 C134.702,79.374 134.136,79.004 133.118,79.187 L132.958,79.219 C132.822,79.257 132.649,79.353 132.556,79.415 L132.484,79.471 C131.651,80.123 130.772,80.438 129.797,80.438 C127.503,80.438 126.524,79.441 126.524,77.103 C126.524,76.634 126.561,76.12 126.631,75.581 L128.647,61.037 L135.247,61.037 C136.281,61.037 137.017,60.422 137.17,59.405 C137.17,59.405 137.535,56.781 137.535,56.62 C137.535,55.862 137.01,55.098 135.839,55.098" id="Fill-2" fill="#333F56"></path>
        <path d="M161.956,77.265 L161.954,77.266 C159.8,79.443 157.562,80.501 155.11,80.501 C152.666,80.501 150.789,79.769 149.371,78.261 C147.941,76.746 147.246,74.758 147.246,72.188 C147.246,68.797 148.293,66.112 150.447,63.98 C152.603,61.841 154.989,60.802 157.741,60.802 C159.852,60.802 161.578,61.525 163.013,63.013 C164.459,64.519 165.162,66.476 165.162,68.994 C165.162,72.388 164.113,75.094 161.956,77.265 Z M168.26,58.429 C165.713,55.944 162.374,54.684 158.334,54.684 C153.403,54.684 149.123,56.348 145.614,59.628 C142.085,62.924 140.294,67.311 140.294,72.665 C140.294,76.865 141.589,80.278 144.143,82.81 C146.689,85.337 150.032,86.619 154.074,86.619 C159.134,86.619 163.45,84.909 166.9,81.539 C170.359,78.167 172.113,73.766 172.113,68.459 C172.113,64.293 170.816,60.918 168.26,58.429 Z" id="Fill-3" fill="#333F56"></path>
        <path d="M198.377,77.271 L198.375,77.273 C196.424,79.445 194.165,80.501 191.473,80.501 C189.568,80.501 188.001,79.826 186.68,78.437 C185.367,77.057 184.701,75.134 184.701,72.723 C184.701,68.944 185.714,65.978 187.71,63.907 C189.729,61.817 191.841,60.802 194.165,60.802 C196.475,60.802 198.198,61.494 199.433,62.918 C200.687,64.367 201.322,66.371 201.322,68.874 C201.322,72.28 200.331,75.105 198.377,77.271 Z M195.736,54.684 C191.996,54.684 188.899,55.89 186.493,58.277 L186.686,57.039 C186.854,56.375 186.652,55.933 186.454,55.678 C186.248,55.414 185.842,55.098 185.078,55.098 L178.149,55.098 C177.2,55.098 176.51,55.686 176.344,56.663 L175.996,59.174 C175.883,59.83 176.101,60.255 176.304,60.496 C176.512,60.743 176.908,61.037 177.619,61.037 L179.679,61.037 L175.104,93.583 L172.584,93.583 C171.6,93.583 170.913,94.219 170.844,95.124 L170.431,97.659 C170.317,98.316 170.536,98.743 170.739,98.984 C170.948,99.232 171.345,99.527 172.054,99.527 L181.147,99.527 L181.676,94.705 L183.295,82.965 C183.798,83.606 184.4,84.196 185.103,84.731 C186.753,85.983 188.937,86.619 191.593,86.619 C196.406,86.619 200.42,84.833 203.521,81.31 C206.595,77.818 208.152,73.415 208.152,68.223 C208.152,64.166 207.031,60.867 204.818,58.414 C202.574,55.939 199.519,54.684 195.736,54.684 Z" id="Fill-4" fill="#333F56"></path>
        <path d="M232.557,75.958 C229.737,79.014 226.65,80.501 223.128,80.501 C221.667,80.501 220.522,80.175 219.721,79.532 C218.962,78.924 218.607,78.218 218.607,77.31 C218.607,76.339 218.839,75.546 219.295,74.954 C219.764,74.343 220.685,73.796 222.027,73.329 C223.459,72.836 225.961,72.587 229.465,72.587 L233.014,72.587 L232.557,75.958 Z M241.067,80.26 L238.832,80.26 L240.625,67.672 C240.792,66.644 240.874,65.72 240.874,64.85 C240.874,60.212 238.791,54.684 228.872,54.684 C226.421,54.684 224.11,55.019 222.005,55.678 C219.838,56.357 218.762,56.87 217.741,57.438 C217.013,57.845 216.512,58.342 216.109,58.717 C215.412,59.385 215.268,60.214 215.732,60.95 L217.063,62.967 C217.369,63.506 218.056,63.948 219.069,63.611 C219.281,63.555 219.493,63.426 219.81,63.206 C220.052,63.039 220.398,62.829 220.858,62.569 C221.176,62.392 221.834,62.068 223.175,61.53 C224.175,61.126 225.833,60.922 228.101,60.922 C233.376,60.922 233.985,63.535 233.985,65.5 C233.985,66.001 233.938,66.519 233.842,67.058 L229.701,67.058 C224.227,67.058 219.815,67.956 216.589,69.728 C213.162,71.6 211.425,74.541 211.425,78.466 C211.425,80.976 212.355,83.006 214.189,84.504 C215.963,85.946 218.273,86.676 221.057,86.676 C225.298,86.676 229.029,85.247 232.184,82.418 L232.163,82.571 C232.114,82.865 232.092,83.135 232.092,83.381 C232.092,84.231 232.407,86.205 235.329,86.205 L240.48,86.205 C241.507,86.205 242.201,85.587 242.286,84.639 L242.644,82.04 C242.697,81.374 242.46,80.965 242.252,80.74 C242.051,80.521 241.682,80.26 241.067,80.26 Z" id="Fill-5" fill="#333F56"></path>
        <path d="M272.268,55.098 L270.132,59.614 L261.373,77.397 L257.17,59.802 L255.945,55.098 L248.458,55.098 C247.499,55.098 246.809,55.689 246.651,56.661 L246.298,59.183 C246.182,59.878 246.411,60.261 246.614,60.501 C246.822,60.746 247.218,61.037 247.922,61.037 L250.411,61.037 L256.017,83.293 C256.179,84.038 256.405,84.548 256.728,84.903 C256.896,85.086 257.15,85.292 257.522,85.422 L255.989,88.493 C254.903,90.587 253.918,92.049 253.063,92.834 C252.291,93.539 251.435,93.882 250.442,93.882 C249.483,93.882 248.638,93.604 247.864,93.031 L247.71,92.913 L247.481,92.782 L247.358,92.731 C246.323,92.382 245.682,92.813 245.366,93.129 L243.627,94.989 C243.184,95.417 243.09,95.884 243.09,96.199 C243.09,96.649 243.286,97.073 243.627,97.411 C245.158,99.166 247.351,100.057 250.144,100.057 C252.905,100.057 255.221,99.154 257.023,97.374 C258.729,95.694 260.456,93.102 262.304,89.451 L276.993,60.481 L279.606,55.098 L272.268,55.098" id="Fill-6" fill="#333F56"></path>
        <polyline id="Fill-7" fill="#333F56" points="39.585 86.205 46.851 86.205 50.128 79.788 42.689 79.788 39.585 86.205"></polyline>
        <path d="M80.993,79.788 L77.805,79.788 L69.396,44.999 C69.106,43.889 68.668,43.089 68.054,42.553 C67.708,42.251 67.282,42.054 66.787,41.895 C65.766,41.564 64.268,41.654 63.618,41.739 C62.783,41.849 61.889,42.18 61.133,43.086 C60.086,44.341 59.006,46.63 58.979,46.692 L51.83,60.46 L59.251,60.424 L63.859,51.422 L67.536,67.094 L41.731,67.094 L35.922,67.044 L32.768,73.121 L68.954,73.153 L72.173,86.205 L80.4,86.205 C81.358,86.205 82.05,85.614 82.207,84.638 L82.627,81.576 C82.686,80.922 82.45,80.514 82.242,80.287 C82.034,80.059 81.648,79.788 80.993,79.788" id="Fill-8" fill="#333F56"></path>
        <path d="M37.095,105.187 L38.229,105.187 C38.889,105.187 39.491,105.064 40.037,104.818 C40.583,104.573 41.055,104.215 41.45,103.747 C41.847,103.279 42.152,102.706 42.368,102.028 C42.585,101.35 42.692,100.58 42.692,99.715 C42.692,98.66 42.416,97.868 41.864,97.339 C41.312,96.811 40.532,96.547 39.524,96.547 L38.805,96.547 L37.095,105.187 Z M34.845,106.753 L37.185,94.981 L39.578,94.981 C41.223,94.981 42.482,95.374 43.358,96.161 C44.234,96.946 44.673,98.089 44.673,99.589 C44.673,100.706 44.52,101.707 44.214,102.595 C43.907,103.483 43.476,104.233 42.918,104.845 C42.359,105.457 41.687,105.928 40.901,106.258 C40.115,106.588 39.236,106.753 38.265,106.753 L34.845,106.753 Z" id="Fill-9" fill="#333F56"></path>
        <path d="M49.209,101.605 L53.115,101.605 C53.139,101.486 53.16,101.362 53.178,101.236 C53.196,101.11 53.205,100.975 53.205,100.831 C53.205,100.399 53.1,100.018 52.89,99.688 C52.68,99.358 52.305,99.193 51.765,99.193 C51.225,99.193 50.718,99.407 50.244,99.833 C49.77,100.258 49.425,100.849 49.209,101.605 Z M47.175,103.225 C47.175,102.397 47.316,101.644 47.598,100.966 C47.88,100.289 48.252,99.707 48.714,99.22 C49.176,98.734 49.695,98.359 50.271,98.095 C50.847,97.832 51.423,97.699 51.999,97.699 C52.515,97.699 52.95,97.784 53.304,97.952 C53.658,98.12 53.946,98.35 54.168,98.644 C54.39,98.938 54.552,99.283 54.654,99.679 C54.756,100.075 54.807,100.501 54.807,100.957 C54.807,101.341 54.759,101.713 54.663,102.073 C54.566,102.433 54.489,102.685 54.429,102.83 L49.047,102.83 C48.999,103.297 49.022,103.7 49.119,104.036 C49.215,104.372 49.362,104.647 49.56,104.863 C49.758,105.08 50.001,105.239 50.289,105.34 C50.577,105.442 50.889,105.494 51.225,105.494 C51.537,105.494 51.855,105.421 52.179,105.277 C52.503,105.133 52.785,104.971 53.025,104.791 L53.745,106.033 C53.385,106.286 52.95,106.504 52.44,106.69 C51.93,106.876 51.357,106.969 50.721,106.969 C50.192,106.969 49.713,106.885 49.281,106.717 C48.849,106.549 48.477,106.306 48.165,105.988 C47.853,105.67 47.61,105.28 47.437,104.818 C47.262,104.356 47.175,103.826 47.175,103.225 Z" id="Fill-10" fill="#333F56"></path>
        <path d="M66.021,97.916 L64.274,106.753 L62.709,106.753 L62.78,105.494 L62.709,105.494 C62.265,105.889 61.797,106.234 61.305,106.528 C60.812,106.822 60.297,106.969 59.757,106.969 C59.013,106.969 58.476,106.774 58.145,106.384 C57.815,105.995 57.65,105.446 57.65,104.737 C57.65,104.534 57.662,104.332 57.687,104.134 C57.711,103.936 57.747,103.723 57.795,103.496 L58.911,97.916 L60.837,97.916 L59.774,103.244 C59.727,103.448 59.69,103.622 59.667,103.765 C59.643,103.909 59.631,104.047 59.631,104.179 C59.631,104.935 59.997,105.313 60.728,105.313 C61.316,105.313 62.043,104.857 62.906,103.945 L64.095,97.916 L66.021,97.916" id="Fill-11" fill="#333F56"></path>
        <path d="M71.403,106.969 C70.575,106.969 69.984,106.762 69.63,106.348 C69.276,105.934 69.1,105.421 69.1,104.809 C69.1,104.629 69.111,104.456 69.135,104.288 C69.159,104.12 69.183,103.945 69.207,103.765 L70.107,99.445 L68.865,99.445 L69.153,98.005 L70.503,97.916 L71.205,95.54 L72.825,95.54 L72.357,97.916 L74.481,97.916 L74.175,99.445 L72.015,99.445 L71.115,103.837 C71.079,104.053 71.062,104.263 71.062,104.467 C71.062,104.791 71.139,105.034 71.295,105.196 C71.451,105.358 71.715,105.439 72.087,105.439 C72.243,105.439 72.387,105.415 72.52,105.367 C72.651,105.32 72.783,105.265 72.915,105.206 L73.275,106.573 C73.06,106.669 72.795,106.759 72.483,106.843 C72.171,106.927 71.811,106.969 71.403,106.969" id="Fill-12" fill="#333F56"></path>
        <path d="M78.566,106.969 C78.29,106.969 78.005,106.927 77.711,106.843 C77.417,106.759 77.132,106.645 76.856,106.501 C76.58,106.357 76.322,106.18 76.082,105.97 C75.842,105.76 75.638,105.529 75.47,105.277 L76.622,104.341 C76.91,104.725 77.231,105.019 77.585,105.223 C77.938,105.427 78.314,105.529 78.71,105.529 C79.13,105.529 79.493,105.418 79.799,105.196 C80.105,104.974 80.258,104.702 80.258,104.377 C80.258,104.101 80.132,103.864 79.88,103.666 C79.628,103.468 79.226,103.213 78.674,102.901 C78.086,102.578 77.624,102.223 77.288,101.839 C76.952,101.456 76.784,100.994 76.784,100.454 C76.784,100.057 76.868,99.688 77.036,99.346 C77.204,99.004 77.435,98.713 77.729,98.473 C78.023,98.233 78.365,98.044 78.755,97.906 C79.145,97.768 79.562,97.699 80.006,97.699 C80.582,97.699 81.101,97.819 81.563,98.059 C82.025,98.299 82.43,98.599 82.778,98.959 L81.698,99.985 C81.47,99.757 81.218,99.562 80.942,99.4 C80.666,99.238 80.354,99.157 80.006,99.157 C79.598,99.157 79.262,99.265 78.998,99.481 C78.734,99.697 78.603,99.961 78.603,100.273 C78.603,100.441 78.644,100.585 78.729,100.706 C78.811,100.826 78.926,100.939 79.07,101.047 C79.214,101.155 79.376,101.257 79.556,101.353 C79.736,101.45 79.922,101.551 80.114,101.659 C80.774,102.007 81.267,102.373 81.59,102.757 C81.914,103.141 82.076,103.603 82.076,104.143 C82.076,104.575 81.989,104.965 81.815,105.313 C81.641,105.662 81.398,105.958 81.086,106.205 C80.774,106.451 80.402,106.639 79.97,106.771 C79.538,106.903 79.07,106.969 78.566,106.969" id="Fill-13" fill="#333F56"></path>
        <path d="M88.412,106.969 C87.92,106.969 87.47,106.888 87.063,106.726 C86.654,106.564 86.3,106.331 86,106.024 C85.7,105.718 85.466,105.343 85.298,104.899 C85.13,104.456 85.046,103.945 85.046,103.37 C85.046,102.578 85.181,101.836 85.451,101.146 C85.721,100.456 86.087,99.856 86.549,99.346 C87.011,98.836 87.551,98.434 88.169,98.14 C88.787,97.846 89.438,97.699 90.122,97.699 C90.662,97.699 91.124,97.807 91.508,98.023 C91.892,98.239 92.204,98.491 92.444,98.779 L91.364,99.949 C91.16,99.709 90.956,99.536 90.752,99.427 C90.548,99.319 90.296,99.265 89.996,99.265 C89.601,99.265 89.222,99.374 88.862,99.589 C88.502,99.805 88.187,100.096 87.917,100.462 C87.647,100.829 87.431,101.254 87.27,101.74 C87.107,102.226 87.026,102.746 87.026,103.297 C87.026,103.969 87.173,104.488 87.467,104.854 C87.761,105.22 88.208,105.403 88.809,105.403 C89.156,105.403 89.465,105.334 89.735,105.196 C90.005,105.058 90.254,104.899 90.482,104.719 L91.311,105.943 C90.974,106.183 90.575,106.414 90.113,106.636 C89.651,106.858 89.084,106.969 88.412,106.969" id="Fill-14" fill="#333F56"></path>
        <path d="M94.19,106.753 L96.746,94.045 L98.672,94.045 L97.897,97.79 L97.556,99.067 L97.628,99.067 C98.084,98.683 98.549,98.359 99.022,98.095 C99.497,97.832 100.004,97.699 100.544,97.699 C101.288,97.699 101.822,97.891 102.146,98.275 C102.47,98.66 102.632,99.211 102.632,99.931 C102.632,100.135 102.623,100.333 102.605,100.525 C102.587,100.717 102.548,100.933 102.488,101.173 L101.372,106.753 L99.446,106.753 L100.526,101.425 C100.562,101.221 100.595,101.047 100.625,100.903 C100.654,100.759 100.67,100.622 100.67,100.489 C100.67,99.733 100.298,99.355 99.554,99.355 C99.242,99.355 98.909,99.463 98.555,99.679 C98.201,99.895 97.79,100.244 97.322,100.723 L96.134,106.753 L94.19,106.753" id="Fill-15" fill="#333F56"></path>
        <path d="M107.042,106.969 C106.526,106.969 106.148,106.843 105.908,106.591 C105.668,106.339 105.548,105.986 105.548,105.529 C105.548,105.253 105.59,104.941 105.674,104.593 L107.78,94.045 L109.706,94.045 L107.582,104.683 C107.558,104.78 107.546,104.851 107.546,104.899 L107.546,105.025 C107.546,105.277 107.647,105.403 107.853,105.403 L107.996,105.394 L108.176,105.349 L108.14,106.789 C108.008,106.849 107.853,106.894 107.672,106.924 C107.492,106.954 107.282,106.969 107.042,106.969" id="Fill-16" fill="#333F56"></path>
        <path d="M114.926,105.385 C115.31,105.385 115.702,105.271 116.105,105.043 C116.506,104.815 116.888,104.431 117.247,103.891 L117.968,100.363 C117.764,99.979 117.532,99.704 117.274,99.536 C117.017,99.368 116.749,99.283 116.474,99.283 C116.102,99.283 115.741,99.394 115.394,99.616 C115.045,99.838 114.739,100.141 114.476,100.525 C114.211,100.91 114.001,101.356 113.846,101.866 C113.689,102.376 113.611,102.914 113.611,103.477 C113.611,104.125 113.729,104.605 113.962,104.917 C114.196,105.229 114.518,105.385 114.926,105.385 Z M114.134,106.969 C113.354,106.969 112.738,106.693 112.288,106.141 C111.839,105.589 111.613,104.791 111.613,103.747 C111.613,102.908 111.745,102.119 112.01,101.38 C112.273,100.642 112.627,100 113.071,99.455 C113.516,98.909 114.022,98.479 114.593,98.167 C115.162,97.855 115.753,97.699 116.365,97.699 C116.798,97.699 117.193,97.81 117.554,98.032 C117.913,98.254 118.195,98.557 118.399,98.941 L118.436,98.941 L118.814,97.916 L120.361,97.916 L118.598,106.753 L117.014,106.753 L117.104,105.529 L117.05,105.529 C116.629,105.961 116.164,106.309 115.654,106.573 C115.145,106.837 114.638,106.969 114.134,106.969 Z" id="Fill-17" fill="#333F56"></path>
        <path d="M122.612,106.753 L124.376,97.916 L125.941,97.916 L125.852,99.157 L125.924,99.157 C126.392,98.761 126.875,98.419 127.373,98.131 C127.871,97.843 128.401,97.699 128.966,97.699 C129.71,97.699 130.244,97.891 130.567,98.275 C130.892,98.66 131.054,99.211 131.054,99.931 C131.054,100.135 131.045,100.333 131.026,100.525 C131.009,100.717 130.97,100.933 130.91,101.173 L129.794,106.753 L127.868,106.753 L128.948,101.425 C128.983,101.221 129.017,101.047 129.047,100.903 C129.076,100.759 129.092,100.622 129.092,100.489 C129.092,99.733 128.72,99.355 127.976,99.355 C127.664,99.355 127.331,99.463 126.977,99.679 C126.623,99.895 126.212,100.244 125.744,100.723 L124.556,106.753 L122.612,106.753" id="Fill-18" fill="#333F56"></path>
        <path d="M137.301,105.385 C137.685,105.385 138.074,105.271 138.471,105.043 C138.866,104.815 139.25,104.431 139.622,103.891 L140.343,100.363 C140.139,99.979 139.907,99.704 139.649,99.536 C139.392,99.368 139.124,99.283 138.849,99.283 C138.477,99.283 138.116,99.394 137.769,99.616 C137.42,99.838 137.114,100.141 136.851,100.525 C136.586,100.91 136.376,101.356 136.221,101.866 C136.064,102.376 135.986,102.914 135.986,103.477 C135.986,104.125 136.104,104.605 136.337,104.917 C136.571,105.229 136.893,105.385 137.301,105.385 Z M140.738,98.87 L140.99,97.177 L141.603,94.045 L143.528,94.045 L140.973,106.753 L139.389,106.753 L139.479,105.529 L139.425,105.529 C139.004,105.961 138.539,106.309 138.029,106.573 C137.52,106.837 137.013,106.969 136.509,106.969 C135.729,106.969 135.113,106.693 134.663,106.141 C134.214,105.589 133.988,104.791 133.988,103.747 C133.988,102.908 134.12,102.119 134.385,101.38 C134.648,100.642 135.002,100 135.446,99.455 C135.891,98.909 136.397,98.479 136.968,98.167 C137.537,97.855 138.128,97.699 138.74,97.699 C139.173,97.699 139.557,97.807 139.893,98.023 C140.229,98.239 140.492,98.521 140.685,98.87 L140.738,98.87 Z" id="Fill-19" fill="#333F56"></path>
    </g>
</svg>