<svg id="图层_1" data-name="图层 1" xmlns="http://www.w3.org/2000/svg" xmlns:xlink="http://www.w3.org/1999/xlink" viewBox="0 0 556.69 559.74"><defs><style>.cls-1,.cls-2{fill:none;}.cls-2{clip-path:url(#clip-path);}.cls-3{clip-path:url(#clip-path-2);}.cls-4{fill:#5d767b;}.cls-5{fill:#d3dadb;}.cls-6{fill:#d85018;}.cls-7{fill:#ee7800;}.cls-8{clip-path:url(#clip-path-3);}.cls-9{fill:#fff;}</style><clipPath id="clip-path"><path class="cls-1" d="M64.32,149.68H450.65a32.67,32.67,0,0,1,32.67,32.67v401a32.67,32.67,0,0,1-32.67,32.67H64.32a32.67,32.67,0,0,1-32.67-32.67v-401a32.67,32.67,0,0,1,32.67-32.67Z"/></clipPath><clipPath id="clip-path-2" transform="translate(-15.93 -149.68)"><rect class="cls-1" x="31.65" y="149.65" width="540.98" height="559.12"/></clipPath><clipPath id="clip-path-3" transform="translate(-15.93 -149.68)"><polygon class="cls-2" points="62.9 149.65 31.65 149.65 31.65 182.35 31.65 708.78 572.63 708.78 572.63 149.65 62.9 149.65"/></clipPath></defs><title>Logo_solingen_neuFarbe</title><g class="cls-3"><path class="cls-4" d="M64.32,242.43H540a32.67,32.67,0,0,1,32.67,32.67v401A32.67,32.67,0,0,1,540,708.8H64.32a32.67,32.67,0,0,1-32.67-32.68v-401a32.67,32.67,0,0,1,32.67-32.67Z" transform="translate(-15.93 -149.68)"/><path class="cls-5" d="M64.32,149.68H540a32.67,32.67,0,0,1,32.67,32.67v401A32.67,32.67,0,0,1,540,616.05H64.32a32.67,32.67,0,0,1-32.67-32.67v-401a32.67,32.67,0,0,1,32.67-32.67Z" transform="translate(-15.93 -149.68)"/><path class="cls-6" d="M64.32,149.68H450.65a32.67,32.67,0,0,1,32.67,32.67v401a32.67,32.67,0,0,1-32.67,32.67H64.32a32.67,32.67,0,0,1-32.67-32.67v-401a32.67,32.67,0,0,1,32.67-32.67Z" transform="translate(-15.93 -149.68)"/><path class="cls-7" d="M64.32,149.68H450.65a32.67,32.67,0,0,1,32.67,32.67v401a32.67,32.67,0,0,1-32.67,32.67H64.32a32.67,32.67,0,0,1-32.67-32.67v-401a32.67,32.67,0,0,1,32.67-32.67Z" transform="translate(-15.93 -149.68)"/></g><g class="cls-8"><path class="cls-9" d="M186.55,324.89,211,416.35l82.69-22.2q29.23-7.84,40.36-23t4.87-38.59q-6-22.5-23.54-30t-46.16.18l-82.69,22.2Zm-54,384.53L15.93,273.31,283,201.61Q371,178,419.23,198.81t66.61,89.42q18.43,68.91-13,118.57T366.38,476.57L236.44,511.45l42.44,158.7L132.57,709.42Z" transform="translate(-15.93 -149.68)"/><path class="cls-5" d="M192.31,449.35l108.86-29.17c22.09-5.92,42.5-15.84,55.18-33.14,13.58-18.52,14.82-40.45,9.18-61.49s-18-38.83-39-47.8c-19.59-8.38-41.91-6.95-63.82-1.08L153.86,305.84l38.45,143.51Zm-143.38-157,241.55-64.73c56.74-15.21,95-14.35,118.83-4.08,22.21,9.56,40.44,30.89,51.36,71.64,10.81,40.33,6.35,71.74-9.78,97.15-16.36,25.77-45.16,46-90.84,58.19L203.84,492.4l42.52,158.7-94.53,25.33L48.93,292.36Z" transform="translate(-15.93 -149.68)"/></g><path class="cls-4" d="M536.17,578.56h.29a6.11,6.11,0,0,0,4.57-1.7,6.25,6.25,0,0,0,1.67-4.59,9.39,9.39,0,0,0-1.18-5.2,3.9,3.9,0,0,0-3.46-1.75q-3.28,0-5.13,7.47l-.67,2.67q-2.26,8.46-5.1,11.41t-8,3a10.82,10.82,0,0,1-9.16-4.89q-3.53-4.9-3.54-13,0-8.58,3.16-12.95t9.36-4.37h.72v11.88h-.2a4.82,4.82,0,0,0-5.37,5.39,6.57,6.57,0,0,0,1.21,4.14,3.85,3.85,0,0,0,3.18,1.56q3.22,0,5.44-9.36.58-2.49,1-3.88,1.54-5.88,4.48-8.64a10.8,10.8,0,0,1,7.69-2.75,11.46,11.46,0,0,1,10,5q3.5,5,3.49,14.6,0,8.69-3.71,13.24t-10.77,4.55V578.56Z" transform="translate(-15.93 -149.68)"/><path class="cls-4" d="M528.58,535.83q-10.43,0-16.22-5.75T506.56,514q0-10.32,5.79-16.07t16.22-5.75q10.4,0,16.24,5.75T550.65,514q0,10.32-5.84,16.08t-16.24,5.77Zm0-12.22q6.61,0,9.95-2.42a8.34,8.34,0,0,0,3.33-7.21,8.23,8.23,0,0,0-3.33-7.15q-3.34-2.39-9.95-2.39t-10,2.39a8.22,8.22,0,0,0-3.33,7.15,8.32,8.32,0,0,0,3.35,7.21q3.35,2.42,10,2.42Z" transform="translate(-15.93 -149.68)"/><polygon class="cls-4" points="534 324.25 491.28 324.25 491.28 312.44 525.76 312.44 525.76 293.45 534 293.45 534 324.25 534 324.25"/><polygon class="cls-4" points="534 276.55 491.28 276.55 491.28 264.74 534 264.74 534 276.55 534 276.55"/><polygon class="cls-4" points="534 245.09 491.28 245.09 491.28 228.24 521.67 214.7 491.28 214.7 491.28 204.55 534 204.55 534 220.88 502.64 234.76 534 234.76 534 245.09 534 245.09"/><path class="cls-4" d="M548.51,293.88q1.07,5.3,1.61,10a77.36,77.36,0,0,1,.54,8.85q0,11.53-5.46,17.37T529,335.9q-10.92,0-16.67-5.93t-5.75-17.23q0-9.62,3.3-14.26t10.35-4.9v12.14a5.29,5.29,0,0,0-4,2,7.78,7.78,0,0,0-1.5,5,9.74,9.74,0,0,0,3.65,8.1q3.65,2.88,10.25,2.89,6.95,0,10.47-3.15t3.52-9.38a27.35,27.35,0,0,0-.19-3.13,29,29,0,0,0-.59-3.33H534v8.84h-8.13v-19.7Z" transform="translate(-15.93 -149.68)"/><polygon class="cls-4" points="534 123.83 491.28 123.83 491.28 92.3 499.47 92.3 499.47 112.31 508.19 112.31 508.19 93.26 516.32 93.26 516.32 112.31 525.46 112.31 525.46 91.72 534 91.72 534 123.83 534 123.83"/><polygon class="cls-4" points="534 73.28 491.28 73.28 491.28 56.43 521.67 42.9 491.28 42.9 491.28 32.75 534 32.75 534 49.07 502.64 62.95 534 62.95 534 73.28 534 73.28"/><path class="cls-9" d="M71.89,648.22v10.44h9.46a7.86,7.86,0,0,0,5-1.3,4.78,4.78,0,0,0,1.62-4,4.62,4.62,0,0,0-1.65-3.87,7.88,7.88,0,0,0-4.93-1.3ZM55.15,687.64v-49.8H85.71q10.06,0,14.62,3.6t4.56,11.43q0,7.87-4.78,12.26t-13.35,4.39H71.89v18.12Z" transform="translate(-15.93 -149.68)"/><path class="cls-9" d="M142.11,667.79l-8-18.1-8.44,18.1Zm-25.4,19.85H100l25.82-49.8H144.3l24.62,49.8H150.35l-3.75-9H120.72l-4,9Z" transform="translate(-15.93 -149.68)"/><path class="cls-9" d="M186.88,647.94v10h9.46a8.34,8.34,0,0,0,5-1.2,4.41,4.41,0,0,0,1.59-3.76,4.53,4.53,0,0,0-1.52-3.83q-1.52-1.17-5.07-1.16Zm-16.67,39.7v-49.8h28.56a83.44,83.44,0,0,1,12.18.58,13.78,13.78,0,0,1,5.26,1.92,10.09,10.09,0,0,1,3.51,4.17,13.7,13.7,0,0,1,1.25,5.93,10.47,10.47,0,0,1-3.31,8q-3.31,3.09-9.13,3.53,6.08.33,8.7,2.35t3.13,6.7l.91,8.27a33.23,33.23,0,0,0,.65,3.75q.49,2.16,1.19,4.59H205.84a16.71,16.71,0,0,1-.78-3,37.52,37.52,0,0,1-.41-3.91l-.47-6.88q-.2-3.34-1.5-4.52t-5.29-1.18H186.88v19.5Z" transform="translate(-15.93 -149.68)"/><polygon class="cls-9" points="212.74 537.96 212.74 488.17 229.48 488.17 229.48 506.83 246.98 488.17 267.45 488.17 247.59 509.54 270.63 537.96 249.55 537.96 229.48 512.64 229.48 537.96 212.74 537.96 212.74 537.96"/><path class="cls-9" d="M304.92,647.94v10h9.46a8.33,8.33,0,0,0,5-1.2,4.41,4.41,0,0,0,1.59-3.76,4.52,4.52,0,0,0-1.52-3.83q-1.52-1.17-5.07-1.16Zm-16.67,39.7v-49.8h28.56a83.44,83.44,0,0,1,12.18.58,13.78,13.78,0,0,1,5.26,1.92,10.09,10.09,0,0,1,3.51,4.17,13.72,13.72,0,0,1,1.25,5.93,10.47,10.47,0,0,1-3.31,8q-3.31,3.09-9.13,3.53,6.09.33,8.71,2.35t3.13,6.7l.91,8.27a33.21,33.21,0,0,0,.65,3.75q.48,2.16,1.19,4.59H323.87a16.67,16.67,0,0,1-.78-3,38.33,38.33,0,0,1-.41-3.91l-.47-6.88q-.2-3.34-1.5-4.52t-5.29-1.18h-10.5v19.5Z" transform="translate(-15.93 -149.68)"/><path class="cls-9" d="M380.89,667.79l-8-18.1-8.44,18.1Zm-25.4,19.85H338.76l25.82-49.8h18.51l24.62,49.8H389.13l-3.75-9H359.51l-4,9Z" transform="translate(-15.93 -149.68)"/><path class="cls-9" d="M407.76,637.85h16.53v28.35q0,6.21,2.85,9.2t8.79,3q5.8,0,8.67-3t2.87-9.14V637.85h16V666q0,11.65-6.77,17.06t-21.39,5.42q-14.52,0-21.05-5.35T407.76,666V637.85Z" transform="translate(-15.93 -149.68)"/><polygon class="cls-9" points="456.33 537.96 456.33 488.17 484.06 488.17 496.85 519.02 509.31 488.17 535.04 488.17 535.04 537.96 519.07 537.96 519.07 497.86 502.32 537.96 489.6 537.96 472.38 497.86 472.38 537.96 456.33 537.96 456.33 537.96"/></svg>