<svg id="Layer_1" data-name="Layer 1" xmlns="http://www.w3.org/2000/svg" viewBox="0 0 197.71 62.63"><defs><style>.cls-1{fill:#1c2b39;}.cls-2{fill:#f58220;}</style></defs><title>ONEPARK Denmark</title><path class="cls-1" d="M110.11,46c.79,0,1.11-.3,1.11-1.08V42c0-.78-.33-1-1.11-1h-8V35.41h7.06c.79,0,1.11-.3,1.11-1.08V31.62c0-.78-.33-1-1.11-1h-7.06V25.75h7.65c.78,0,1.11-.3,1.11-1.08v-2.9c0-.79-.33-1-1.11-1H97c-.77,0-1.08.34-1.08,1.12v23c0,.78.3,1.12,1.08,1.12ZM91.49,21.85c0-.78-.26-1.12-1-1.12H86.81c-.78,0-1.08.34-1.08,1.12V34.48a27.23,27.23,0,0,0-1.3-2.79L78.15,21.17a.93.93,0,0,0-.93-.44H73.57c-.77,0-1.08.34-1.08,1.12v23c0,.78.31,1.12,1.08,1.12h3.65c.78,0,1-.34,1-1.12V32.25a20.71,20.71,0,0,0,1.61,3.34l5.94,9.88a1,1,0,0,0,1,.52h3.64c.78,0,1-.34,1-1.12Zm-29.21,17c0,1.71-1.56,2.42-3.38,2.42s-3.34-.7-3.34-2.42v-11c0-1.71,1.52-2.42,3.34-2.42s3.38.7,3.38,2.42ZM49.42,39.94c0,3.2,2.49,6.36,9.48,6.36s9.51-3.16,9.51-6.36V26.79c0-3.2-2.53-6.36-9.51-6.36s-9.48,3.16-9.48,6.36Z" transform="translate(-0.5 -0.61)"/><path class="cls-2" d="M190,33.15l7.06-11.3c.38-.59.26-1.12-.52-1.12h-4.27a2.13,2.13,0,0,0-1.74,1.12l-5.69,9.48h-.37V21.85c0-.78-.26-1.12-1-1.12h-4c-.78,0-1.08.34-1.08,1.12v23c0,.78.3,1.12,1.08,1.12h4c.79,0,1-.34,1-1.12v-9.1h.41l5.87,9.1c.37.56.78,1.12,1.56,1.12h5.13c.78,0,.93-.56.56-1.12Zm-25-7.39c1.82,0,3.38.7,3.38,2.41v1.08c0,1.71-1.55,2.41-3.38,2.41h-3v-5.9Zm9.44,4.57V27.09c0-3.2-2.46-6.36-9.44-6.36h-8c-.78,0-1.08.34-1.08,1.12v23c0,.78.3,1.12,1.08,1.12h4c.77,0,1-.34,1-1.12V36.68h2.79l3.27,8.21c.23.52.38,1.12,1.08,1.12h4c.82,0,1.31-.45,1-1.12l-3.64-9.14a5.75,5.75,0,0,0,3.86-5.42m-29.73,6.17h-3.5l.56-2c.59-2.16,1.18-7.25,1.26-7.76a72.72,72.72,0,0,0,1.16,7.76Zm.45-15.76h-4a1.31,1.31,0,0,0-1.38,1.12l-6.72,23c-.22.71,0,1.12.81,1.12h3.75c.78,0,1.12-.41,1.31-1.12l1-3.57h6.17l1,3.57c.18.71.52,1.12,1.3,1.12h4.12c.8,0,1.05-.41.82-1.12l-6.72-23a1.31,1.31,0,0,0-1.38-1.12m-21.3,5c1.83,0,3.39.7,3.39,2.41V30c0,1.71-1.57,2.41-3.39,2.41h-3V25.75Zm0,11.66c7,0,9.45-3.16,9.45-6.35v-4c0-3.2-2.45-6.36-9.45-6.36h-8c-.79,0-1.08.34-1.08,1.12v23c0,.78.29,1.12,1.08,1.12h4c.79,0,1-.34,1-1.12V37.41Z" transform="translate(-0.5 -0.61)"/><path class="cls-2" d="M58.28,14.77a31.49,31.49,0,1,0-31,48.47V27.58L21,32a.94.94,0,0,1-1.37-.2l-3.51-5.09a.9.9,0,0,1,.2-1.35l11.22-7.81a1.36,1.36,0,0,1,1-.34h7.31a.86.86,0,0,1,1,.95V63.24a31.42,31.42,0,0,0,19.71-11.3,2.25,2.25,0,0,0-3.5-2.84,27,27,0,0,1-12,8.45V18.16A5.07,5.07,0,0,0,35.78,13H28.47A5.6,5.6,0,0,0,25,14.13l-11.47,8a4.8,4.8,0,0,0-1,6.82l3.81,5.46A4.78,4.78,0,0,0,23,35.72V57.54A27,27,0,1,1,54.51,17.26a2.25,2.25,0,0,0,3.76-2.49" transform="translate(-0.5 -0.61)"/></svg>