<?xml version="1.0" encoding="utf-8"?>
<!-- Generator: Adobe Illustrator 22.1.0, SVG Export Plug-In . SVG Version: 6.00 Build 0)  -->
<svg version="1.1" id="Lager_1" xmlns="http://www.w3.org/2000/svg" xmlns:xlink="http://www.w3.org/1999/xlink" x="0px" y="0px"
	 viewBox="0 0 595.3 419.5" style="enable-background:new 0 0 595.3 419.5;" xml:space="preserve">
<style type="text/css">
	.st0{clip-path:url(#SVGID_2_);fill:#621C46;}
	.st1{fill:#621C46;}
	.st2{clip-path:url(#SVGID_4_);fill:#621C46;}
	.st3{clip-path:url(#SVGID_4_);fill:#FFFFFF;}
	.st4{clip-path:url(#SVGID_4_);fill:#F49600;}
</style>
<g>
	<defs>
		<rect id="SVGID_1_" x="57.6" y="111.5" width="487.9" height="196.5"/>
	</defs>
	<clipPath id="SVGID_2_">
		<use xlink:href="#SVGID_1_"  style="overflow:visible;"/>
	</clipPath>
	<path class="st0" d="M104.8,224.7c9.4,0,15.3-5.2,15.3-12.4v-0.2c0-8.2-6-12.4-15.3-12.4H90.3v25.1H104.8z M77.9,188.5h28
		c16.5,0,26.9,9.2,26.9,23.3v0.2c0,15.6-12.8,23.8-28.4,23.8H90.3v22.4H77.9V188.5z"/>
	<path class="st0" d="M168.5,236.1c-3.1-1.2-7.5-2.1-12.3-2.1c-7.7,0-12.3,3.1-12.3,8.2v0.2c0,5,4.6,7.8,10.3,7.8
		c8.1,0,14.2-4.5,14.2-11V236.1z M168.2,258.1v-6.5c-3.6,4.3-9.2,7.6-17.3,7.6c-10.1,0-19-5.7-19-16.2v-0.2
		c0-11.6,9.2-17.2,21.7-17.2c6.5,0,10.6,0.9,14.8,2.2v-1c0-7.3-4.7-11.2-13.2-11.2c-6,0-10.4,1.3-15.3,3.3l-3.3-9.6
		c5.9-2.6,11.6-4.4,20.4-4.4c15.8,0,23.5,8.2,23.5,22.2v31.1H168.2z"/>
	<path class="st0" d="M187.4,205.6h12.3v11.8c3.3-7.9,9.5-13.2,18.9-12.8v12.7h-0.7c-10.7,0-18.2,6.9-18.2,20.8v20h-12.3V205.6z"/>
</g>
<polygon class="st1" points="221.6,185.5 233.9,185.5 233.9,228.9 256.1,205.6 270.9,205.6 249.7,227 271.7,258.1 257.5,258.1 
	241.4,235.4 233.9,243.1 233.9,258.1 221.6,258.1 "/>
<g>
	<path class="st1" d="M189.7,267.3c1,0,1.8,0.1,2.4,0.2s1.2,0.4,1.7,0.8s0.9,0.9,1.2,1.6s0.4,1.4,0.4,2.3c0,0.9-0.1,1.7-0.3,2.5
		s-0.5,1.5-0.9,2.2s-0.8,1.3-1.4,1.8s-1,0.9-1.5,1.1s-1,0.5-1.7,0.6s-1.3,0.2-2.1,0.2h-4.1l0.1-0.5c0.2,0,0.4-0.1,0.6-0.2
		s0.2-0.2,0.3-0.4s0.2-0.3,0.2-0.6s0.2-0.7,0.3-1.3l1.7-7.5c0.1-0.3,0.1-0.6,0.2-0.9s0.1-0.5,0.1-0.7c0-0.3-0.1-0.5-0.2-0.6
		s-0.4-0.2-0.7-0.2l0.1-0.5H189.7z M186.2,279.7c0.2,0,0.6,0,1.1,0c0.7,0,1.3-0.1,1.8-0.2s1-0.4,1.5-0.7s0.9-0.7,1.2-1.3
		s0.7-1.1,0.9-1.6s0.4-1.1,0.5-1.8s0.2-1.3,0.2-2c0-1.4-0.3-2.4-1-3.1s-1.6-1-2.8-1c-0.3,0-0.6,0-0.9,0L186.2,279.7z"/>
	<path class="st1" d="M203.9,278.7c-0.5,0.5-0.9,0.9-1.4,1.2s-0.9,0.5-1.3,0.7s-0.9,0.2-1.5,0.2c-0.5,0-1-0.1-1.3-0.2
		s-0.7-0.4-0.9-0.7s-0.4-0.6-0.5-1s-0.2-0.8-0.2-1.3c0-0.7,0.1-1.4,0.4-2.2s0.6-1.5,1.1-2.1s1.1-1.1,1.8-1.5s1.5-0.5,2.3-0.5
		c0.8,0,1.4,0.2,1.8,0.5s0.6,0.8,0.6,1.5c0,1.1-0.5,1.9-1.6,2.5s-2.6,0.8-4.6,0.8c-0.1,0.4-0.1,0.8-0.1,1.3c0,0.7,0.1,1.2,0.4,1.5
		s0.7,0.5,1.3,0.5c0.6,0,1.1-0.1,1.6-0.4s1-0.7,1.5-1.2L203.9,278.7z M198.7,275.6c0.6,0,1.1,0,1.6-0.1s0.8-0.1,1.2-0.3
		s0.6-0.2,0.8-0.4s0.4-0.3,0.5-0.5s0.2-0.4,0.3-0.6s0.1-0.4,0.1-0.6c0-0.4-0.1-0.7-0.3-0.9s-0.5-0.3-0.8-0.3c-0.5,0-0.9,0.2-1.3,0.5
		s-0.8,0.8-1.2,1.3S198.9,274.9,198.7,275.6z"/>
	<path class="st1" d="M211.7,278.8c-0.5,0.6-1.1,1.1-1.6,1.5s-1.1,0.5-1.7,0.5c-0.7,0-1.2-0.2-1.5-0.5s-0.5-0.9-0.5-1.5
		c0-0.4,0.1-0.9,0.2-1.4l1.2-5.1h-1.5l0.1-0.5c0.4,0,0.7-0.1,0.9-0.2s0.4-0.3,0.6-0.5s0.3-0.5,0.4-0.8s0.3-0.8,0.5-1.4h1.3l-0.5,2.4
		h3.1l-0.2,1h-3.1l-0.9,3.8c-0.3,1.1-0.4,1.8-0.4,2.4c0,0.4,0.1,0.7,0.3,0.9s0.4,0.3,0.8,0.3c0.3,0,0.6-0.1,0.9-0.3s0.7-0.6,1.1-1
		L211.7,278.8z"/>
	<path class="st1" d="M218.5,282.4c-0.1,0.3-0.1,0.6-0.1,0.7s0,0.3,0,0.4c0,0.2,0,0.3,0.1,0.5s0.2,0.2,0.3,0.3s0.4,0.1,0.7,0.1
		l-0.1,0.5h-3l2.5-10.9c0.1-0.5,0.2-1,0.2-1.4c0-0.2,0-0.3-0.1-0.4s-0.1-0.2-0.3-0.2s-0.4-0.1-0.7-0.1l0.1-0.5l2.2-0.1h0.6l-0.7,2.5
		l0.1,0c1.2-1.8,2.4-2.6,3.6-2.6c0.7,0,1.3,0.3,1.7,0.8s0.6,1.3,0.6,2.3c0,0.7-0.1,1.4-0.3,2.1s-0.5,1.4-0.8,1.9s-0.7,1-1.1,1.4
		s-0.9,0.6-1.3,0.8s-1,0.3-1.5,0.3c-0.9,0-1.6-0.2-2.2-0.6L218.5,282.4z M219.6,277.2c-0.1,0.3-0.1,0.6-0.1,0.8s0,0.4,0,0.5
		c0,0.5,0.1,0.9,0.3,1.1s0.6,0.3,1.1,0.3c0.3,0,0.6-0.1,0.9-0.2s0.5-0.3,0.8-0.6s0.5-0.5,0.7-0.9s0.4-0.8,0.5-1.2s0.3-0.9,0.4-1.4
		s0.1-1,0.1-1.4c0-0.7-0.1-1.2-0.3-1.5s-0.5-0.5-0.9-0.5c-0.3,0-0.7,0.1-1,0.3s-0.7,0.6-1.1,1.1s-0.7,1-0.9,1.5s-0.4,1-0.5,1.7
		L219.6,277.2z"/>
	<path class="st1" d="M234.9,278.7c-0.5,0.5-0.9,0.9-1.4,1.2s-0.9,0.5-1.3,0.7s-0.9,0.2-1.5,0.2c-0.5,0-1-0.1-1.3-0.2
		s-0.7-0.4-0.9-0.7s-0.4-0.6-0.5-1s-0.2-0.8-0.2-1.3c0-0.7,0.1-1.4,0.4-2.2s0.6-1.5,1.1-2.1s1.1-1.1,1.8-1.5s1.5-0.5,2.3-0.5
		c0.8,0,1.4,0.2,1.8,0.5s0.6,0.8,0.6,1.5c0,1.1-0.5,1.9-1.6,2.5s-2.6,0.8-4.6,0.8c-0.1,0.4-0.1,0.8-0.1,1.3c0,0.7,0.1,1.2,0.4,1.5
		s0.7,0.5,1.3,0.5c0.6,0,1.1-0.1,1.6-0.4s1-0.7,1.5-1.2L234.9,278.7z M229.7,275.6c0.6,0,1.1,0,1.6-0.1s0.8-0.1,1.2-0.3
		s0.6-0.2,0.8-0.4s0.4-0.3,0.5-0.5s0.2-0.4,0.3-0.6s0.1-0.4,0.1-0.6c0-0.4-0.1-0.7-0.3-0.9s-0.5-0.3-0.8-0.3c-0.5,0-0.9,0.2-1.3,0.5
		s-0.8,0.8-1.2,1.3S229.9,274.9,229.7,275.6z"/>
	<path class="st1" d="M239.9,271.2h0.6l-0.7,2.4l0.1,0c0.6-0.9,1.2-1.5,1.8-1.9s1.2-0.6,1.8-0.6c0.5,0,0.9,0,1.2,0.1l-0.5,2.2h-1
		c-0.1-0.3-0.1-0.6-0.2-0.8s-0.3-0.3-0.5-0.3c-0.3,0-0.5,0.1-0.9,0.4s-0.7,0.6-1,1.1s-0.6,0.9-0.8,1.3s-0.3,0.8-0.4,1.3l-0.9,4.2
		h-1.7l1.5-6.7c0.1-0.6,0.2-1.1,0.2-1.4c0-0.2,0-0.3-0.1-0.4s-0.2-0.2-0.3-0.2s-0.4-0.1-0.7-0.1l0.1-0.5L239.9,271.2z"/>
	<path class="st1" d="M250.6,273.6c-0.1-0.6-0.2-1-0.5-1.3s-0.7-0.4-1.2-0.4c-0.3,0-0.6,0.1-0.8,0.2s-0.4,0.3-0.6,0.5
		s-0.2,0.5-0.2,0.8c0,0.2,0,0.5,0.1,0.7s0.3,0.4,0.5,0.6s0.6,0.5,1,0.7c0.6,0.4,1.1,0.8,1.3,1.2s0.4,0.9,0.4,1.4
		c0,0.6-0.1,1.1-0.4,1.6s-0.7,0.7-1.2,1s-1.1,0.3-1.7,0.3c-0.6,0-1.1,0-1.6-0.1s-1-0.2-1.5-0.3l0.5-2.1h0.8c0,0.6,0.2,1,0.5,1.3
		s0.7,0.4,1.3,0.4c0.6,0,1-0.1,1.4-0.4s0.5-0.7,0.5-1.1c0-0.3,0-0.5-0.1-0.8s-0.3-0.4-0.5-0.6s-0.5-0.4-0.9-0.7
		c-0.4-0.3-0.7-0.5-1-0.8s-0.5-0.5-0.6-0.8s-0.2-0.6-0.2-1c0-0.5,0.1-1,0.4-1.4s0.6-0.7,1.1-0.9s1.1-0.3,1.7-0.3
		c1.1,0,2,0.1,2.8,0.4l-0.4,2H250.6z"/>
	<path class="st1" d="M255.8,280.8c-1,0-1.8-0.3-2.3-0.8s-0.8-1.4-0.8-2.4c0-0.4,0-0.8,0.1-1.4c0.1-0.7,0.3-1.3,0.5-1.8
		c0.3-0.7,0.7-1.2,1.1-1.7s1-0.8,1.6-1.1s1.2-0.4,1.9-0.4c0.7,0,1.4,0.1,1.8,0.4s0.8,0.7,1,1.2s0.3,1.1,0.3,1.7
		c0,0.6-0.1,1.2-0.2,1.9c-0.2,1-0.6,1.8-1,2.5s-1,1.2-1.7,1.5S256.7,280.8,255.8,280.8z M254.4,277.9c0,0.7,0.1,1.2,0.4,1.6
		s0.7,0.5,1.3,0.5c0.6,0,1.2-0.3,1.7-0.9s0.9-1.4,1.2-2.4s0.4-1.9,0.4-2.7c0-0.7-0.1-1.2-0.4-1.6s-0.7-0.5-1.3-0.5
		c-0.7,0-1.3,0.3-1.8,0.8s-0.9,1.4-1.2,2.4S254.4,277.2,254.4,277.9z"/>
	<path class="st1" d="M271.2,280.6h-3.1l1.2-5c0.1-0.3,0.2-0.7,0.2-1.1s0.1-0.7,0.1-1c0-0.5-0.1-0.8-0.2-1s-0.4-0.3-0.7-0.3
		c-0.3,0-0.6,0.1-0.9,0.3s-0.6,0.5-1,0.9s-0.6,0.8-0.9,1.3s-0.4,1-0.6,1.6l-0.9,4.2h-1.7l1.5-6.7c0-0.1,0.1-0.4,0.1-0.7
		s0.1-0.5,0.1-0.7c0-0.2,0-0.3-0.1-0.4s-0.1-0.2-0.3-0.2s-0.4-0.1-0.7-0.1l0.1-0.5l2.2-0.1h0.6l-0.7,2.5l0.1,0
		c0.6-0.9,1.3-1.6,1.8-2s1.2-0.6,1.8-0.6c0.6,0,1.1,0.2,1.4,0.5s0.5,0.9,0.5,1.5c0,0.2,0,0.5-0.1,0.8s-0.1,0.5-0.1,0.7l-0.8,3.5
		c-0.1,0.5-0.2,0.8-0.2,1.1c0,0.2,0,0.3,0.1,0.5s0.2,0.2,0.3,0.3s0.4,0.1,0.7,0.1L271.2,280.6z"/>
	<path class="st1" d="M277.6,266.7h0.6l-2.5,11.5c-0.1,0.3-0.1,0.5-0.1,0.7s0,0.3,0,0.4c0,0.2,0,0.3,0.1,0.5s0.2,0.2,0.3,0.3
		s0.4,0.1,0.7,0.1l-0.1,0.5h-3l2.5-11.2c0.1-0.3,0.1-0.5,0.1-0.6s0-0.3,0.1-0.4s0-0.2,0-0.3c0-0.2,0-0.3-0.1-0.4s-0.2-0.2-0.3-0.2
		s-0.4-0.1-0.7-0.1l0.1-0.5L277.6,266.7z"/>
	<path class="st1" d="M281.1,278.2c-0.1,0.3-0.1,0.6-0.1,0.7s0,0.3,0,0.4c0,0.2,0,0.3,0.1,0.5s0.2,0.2,0.3,0.3s0.4,0.1,0.7,0.1
		l-0.1,0.5h-3l1.5-6.6c0.1-0.4,0.1-0.7,0.2-0.9s0-0.4,0-0.6c0-0.2,0-0.3-0.1-0.4s-0.1-0.2-0.3-0.2s-0.4-0.1-0.7-0.1l0.1-0.5l2.4-0.1
		h0.6L281.1,278.2z M283.5,267.5l-0.4,1.9h-1.7l0.4-1.9H283.5z"/>
	<path class="st1" d="M284.4,281.5c-0.1,0.1-0.2,0.3-0.3,0.4s-0.1,0.3-0.2,0.4s-0.1,0.3-0.1,0.5c0,0.5,0.2,0.8,0.5,1.1
		s0.9,0.3,1.6,0.3c0.6,0,1.2-0.1,1.6-0.3s0.8-0.6,1.1-1s0.6-1.1,0.8-1.7s0.5-1.6,0.7-2.8l-0.1,0c-0.6,0.9-1.2,1.5-1.8,1.9
		s-1.1,0.6-1.7,0.6c-0.7,0-1.3-0.3-1.7-0.8s-0.6-1.3-0.6-2.3c0-0.7,0.1-1.4,0.3-2.1s0.5-1.3,0.8-1.9s0.7-1,1.1-1.4s0.9-0.7,1.4-0.8
		s1-0.3,1.5-0.3c0.4,0,0.8,0,1.2,0.1s0.7,0.3,1.1,0.5l0.9-0.6l0.6,0.2l-1,4.6c-0.1,0.3-0.1,0.7-0.2,1.1l-0.3,1.3
		c-0.3,1.5-0.5,2.6-0.7,3.2c-0.2,0.7-0.5,1.2-0.8,1.7c-0.3,0.4-0.6,0.8-1,1s-0.8,0.5-1.3,0.6s-1.1,0.2-1.8,0.2
		c-2.5,0-3.7-0.7-3.7-2.1c0-0.4,0.1-0.7,0.3-1s0.6-0.6,1.1-0.9L284.4,281.5z M287.2,279.6c0.3,0,0.7-0.1,1-0.3s0.7-0.6,1.1-1.1
		s0.7-1,0.9-1.4s0.4-1,0.5-1.7s0.2-1.3,0.2-1.7c0-0.5-0.1-0.9-0.3-1.1s-0.6-0.3-1.1-0.3c-0.3,0-0.5,0-0.8,0.1s-0.5,0.2-0.8,0.4
		s-0.5,0.5-0.7,0.8s-0.4,0.7-0.6,1.2s-0.3,1-0.4,1.5s-0.2,1.1-0.2,1.6c0,0.7,0.1,1.2,0.3,1.5S286.8,279.6,287.2,279.6z"/>
	<path class="st1" d="M301.9,271.8l0.9-0.6l0.6,0.2l-1.5,6.6c-0.1,0.4-0.2,0.7-0.2,0.9s0,0.4,0,0.5c0,0.3,0.1,0.5,0.2,0.6
		s0.4,0.2,0.9,0.2l-0.1,0.5h-2.8l0.6-2.5l-0.1,0c-0.6,0.9-1.2,1.6-1.8,2s-1.2,0.6-1.8,0.6c-0.7,0-1.3-0.3-1.7-0.8s-0.6-1.3-0.6-2.3
		c0-0.6,0.1-1.3,0.2-1.9s0.4-1.2,0.6-1.8s0.6-1.1,1-1.5s0.9-0.8,1.4-1s1.1-0.4,1.7-0.4c0.4,0,0.8,0,1.2,0.1S301.5,271.5,301.9,271.8
		z M301,274.7c0.1-0.3,0.1-0.5,0.1-0.7s0-0.4,0-0.6c0-0.5-0.1-0.9-0.3-1.1s-0.6-0.3-1.1-0.3c-0.3,0-0.5,0-0.8,0.1s-0.5,0.2-0.8,0.4
		s-0.5,0.5-0.7,0.8s-0.4,0.7-0.6,1.2s-0.3,1-0.4,1.5s-0.2,1.1-0.2,1.6c0,0.7,0.1,1.2,0.3,1.5s0.5,0.5,0.9,0.5c0.2,0,0.4,0,0.6-0.1
		s0.5-0.3,0.7-0.5s0.6-0.6,0.9-1.1c0.3-0.4,0.5-0.9,0.7-1.3s0.3-0.9,0.4-1.5L301,274.7z"/>
	<path class="st1" d="M310.7,282.4c-0.1,0.3-0.1,0.6-0.1,0.7s0,0.3,0,0.4c0,0.2,0,0.3,0.1,0.5s0.2,0.2,0.3,0.3s0.4,0.1,0.7,0.1
		l-0.1,0.5h-3L311,274c0.1-0.5,0.2-1,0.2-1.4c0-0.2,0-0.3-0.1-0.4s-0.1-0.2-0.3-0.2s-0.4-0.1-0.7-0.1l0.1-0.5l2.2-0.1h0.6l-0.7,2.5
		l0.1,0c1.2-1.8,2.4-2.6,3.6-2.6c0.7,0,1.3,0.3,1.7,0.8s0.6,1.3,0.6,2.3c0,0.7-0.1,1.4-0.3,2.1s-0.5,1.4-0.8,1.9s-0.7,1-1.1,1.4
		s-0.9,0.6-1.3,0.8s-1,0.3-1.5,0.3c-0.9,0-1.6-0.2-2.2-0.6L310.7,282.4z M311.9,277.2c-0.1,0.3-0.1,0.6-0.1,0.8s0,0.4,0,0.5
		c0,0.5,0.1,0.9,0.3,1.1s0.6,0.3,1.1,0.3c0.3,0,0.6-0.1,0.9-0.2s0.5-0.3,0.8-0.6s0.5-0.5,0.7-0.9s0.4-0.8,0.5-1.2s0.3-0.9,0.4-1.4
		s0.1-1,0.1-1.4c0-0.7-0.1-1.2-0.3-1.5s-0.5-0.5-0.9-0.5c-0.3,0-0.7,0.1-1,0.3s-0.7,0.6-1.1,1.1s-0.7,1-0.9,1.5s-0.4,1-0.5,1.7
		L311.9,277.2z"/>
	<path class="st1" d="M327.3,271.8l0.9-0.6l0.6,0.2l-1.5,6.6c-0.1,0.4-0.2,0.7-0.2,0.9s0,0.4,0,0.5c0,0.3,0.1,0.5,0.2,0.6
		s0.4,0.2,0.9,0.2l-0.1,0.5h-2.8l0.6-2.5l-0.1,0c-0.6,0.9-1.2,1.6-1.8,2s-1.2,0.6-1.8,0.6c-0.7,0-1.3-0.3-1.7-0.8s-0.6-1.3-0.6-2.3
		c0-0.6,0.1-1.3,0.2-1.9s0.4-1.2,0.6-1.8s0.6-1.1,1-1.5s0.9-0.8,1.4-1s1.1-0.4,1.7-0.4c0.4,0,0.8,0,1.2,0.1S326.9,271.5,327.3,271.8
		z M326.5,274.7c0.1-0.3,0.1-0.5,0.1-0.7s0-0.4,0-0.6c0-0.5-0.1-0.9-0.3-1.1s-0.6-0.3-1.1-0.3c-0.3,0-0.5,0-0.8,0.1
		s-0.5,0.2-0.8,0.4s-0.5,0.5-0.7,0.8s-0.4,0.7-0.6,1.2s-0.3,1-0.4,1.5s-0.2,1.1-0.2,1.6c0,0.7,0.1,1.2,0.3,1.5s0.5,0.5,0.9,0.5
		c0.2,0,0.4,0,0.6-0.1s0.5-0.3,0.7-0.5s0.6-0.6,0.9-1.1c0.3-0.4,0.5-0.9,0.7-1.3s0.3-0.9,0.4-1.5L326.5,274.7z"/>
	<path class="st1" d="M333.6,271.2h0.6l-0.7,2.4l0.1,0c0.6-0.9,1.2-1.5,1.8-1.9s1.2-0.6,1.8-0.6c0.5,0,0.9,0,1.2,0.1l-0.5,2.2h-1
		c-0.1-0.3-0.1-0.6-0.2-0.8s-0.3-0.3-0.5-0.3c-0.3,0-0.5,0.1-0.9,0.4s-0.7,0.6-1,1.1s-0.6,0.9-0.8,1.3s-0.3,0.8-0.4,1.3l-0.9,4.2
		h-1.7l1.5-6.7c0.1-0.6,0.2-1.1,0.2-1.4c0-0.2,0-0.3-0.1-0.4s-0.2-0.2-0.3-0.2s-0.4-0.1-0.7-0.1l0.1-0.5L333.6,271.2z"/>
	<path class="st1" d="M341.3,275.2h0.3c0.2,0,0.4,0,0.7-0.1s0.5-0.2,0.8-0.4s0.6-0.4,1.1-0.8c0.3-0.3,0.6-0.5,0.8-0.7
		s0.3-0.4,0.3-0.5s0.1-0.3,0.1-0.4c0-0.3-0.2-0.5-0.7-0.5l0.1-0.5h3.2l0.2,0.5c-0.5,0.5-1.1,1-1.7,1.4l-2.5,1.9l1.5,3.7
		c0.1,0.3,0.3,0.6,0.4,0.8s0.3,0.3,0.5,0.4s0.4,0.1,0.7,0.2l-0.1,0.5h-2.6l-1.4-4c-0.1-0.3-0.2-0.4-0.2-0.5s-0.1-0.2-0.2-0.2
		s-0.2-0.1-0.4-0.1h-0.7l-1,4.8h-1.7l2.5-11.2c0.1-0.3,0.1-0.6,0.2-0.7s0.1-0.3,0.1-0.4s0-0.2,0-0.3c0-0.3-0.1-0.5-0.2-0.6
		s-0.5-0.2-0.9-0.2l0.1-0.5l2.5-0.1h0.6L341.3,275.2z"/>
	<path class="st1" d="M355.4,278.7c-0.5,0.5-0.9,0.9-1.4,1.2s-0.9,0.5-1.3,0.7s-0.9,0.2-1.5,0.2c-0.5,0-1-0.1-1.3-0.2
		s-0.7-0.4-0.9-0.7s-0.4-0.6-0.5-1s-0.2-0.8-0.2-1.3c0-0.7,0.1-1.4,0.4-2.2s0.6-1.5,1.1-2.1s1.1-1.1,1.8-1.5s1.5-0.5,2.3-0.5
		c0.8,0,1.4,0.2,1.8,0.5s0.6,0.8,0.6,1.5c0,1.1-0.5,1.9-1.6,2.5s-2.6,0.8-4.6,0.8c-0.1,0.4-0.1,0.8-0.1,1.3c0,0.7,0.1,1.2,0.4,1.5
		s0.7,0.5,1.3,0.5c0.6,0,1.1-0.1,1.6-0.4s1-0.7,1.5-1.2L355.4,278.7z M350.2,275.6c0.6,0,1.1,0,1.6-0.1s0.8-0.1,1.2-0.3
		s0.6-0.2,0.8-0.4s0.4-0.3,0.5-0.5s0.2-0.4,0.3-0.6s0.1-0.4,0.1-0.6c0-0.4-0.1-0.7-0.3-0.9s-0.5-0.3-0.8-0.3c-0.5,0-0.9,0.2-1.3,0.5
		s-0.8,0.8-1.2,1.3S350.4,274.9,350.2,275.6z"/>
	<path class="st1" d="M360.5,271.2h0.6l-0.7,2.4l0.1,0c0.6-0.9,1.2-1.5,1.8-1.9s1.2-0.6,1.8-0.6c0.5,0,0.9,0,1.2,0.1l-0.5,2.2h-1
		c-0.1-0.3-0.1-0.6-0.2-0.8s-0.3-0.3-0.5-0.3c-0.3,0-0.5,0.1-0.9,0.4s-0.7,0.6-1,1.1s-0.6,0.9-0.8,1.3s-0.3,0.8-0.4,1.3l-0.9,4.2
		h-1.7l1.5-6.7c0.1-0.6,0.2-1.1,0.2-1.4c0-0.2,0-0.3-0.1-0.4s-0.2-0.2-0.3-0.2s-0.4-0.1-0.7-0.1l0.1-0.5L360.5,271.2z"/>
	<path class="st1" d="M367.8,278.2c-0.1,0.3-0.1,0.6-0.1,0.7s0,0.3,0,0.4c0,0.2,0,0.3,0.1,0.5s0.2,0.2,0.3,0.3s0.4,0.1,0.7,0.1
		l-0.1,0.5h-3l1.5-6.6c0.1-0.4,0.1-0.7,0.2-0.9s0-0.4,0-0.6c0-0.2,0-0.3-0.1-0.4s-0.1-0.2-0.3-0.2s-0.4-0.1-0.7-0.1l0.1-0.5l2.4-0.1
		h0.6L367.8,278.2z M370.2,267.5l-0.4,1.9H368l0.4-1.9H370.2z"/>
	<path class="st1" d="M379.4,280.6h-3.1l1.2-5c0.1-0.3,0.2-0.7,0.2-1.1s0.1-0.7,0.1-1c0-0.5-0.1-0.8-0.2-1s-0.4-0.3-0.7-0.3
		c-0.3,0-0.6,0.1-0.9,0.3s-0.6,0.5-1,0.9s-0.6,0.8-0.9,1.3s-0.4,1-0.6,1.6l-0.9,4.2H371l1.5-6.7c0-0.1,0.1-0.4,0.1-0.7
		s0.1-0.5,0.1-0.7c0-0.2,0-0.3-0.1-0.4s-0.1-0.2-0.3-0.2s-0.4-0.1-0.7-0.1l0.1-0.5l2.2-0.1h0.6l-0.7,2.5l0.1,0
		c0.6-0.9,1.3-1.6,1.8-2s1.2-0.6,1.8-0.6c0.6,0,1.1,0.2,1.4,0.5s0.5,0.9,0.5,1.5c0,0.2,0,0.5-0.1,0.8s-0.1,0.5-0.1,0.7l-0.8,3.5
		c-0.1,0.5-0.2,0.8-0.2,1.1c0,0.2,0,0.3,0.1,0.5s0.2,0.2,0.3,0.3s0.4,0.1,0.7,0.1L379.4,280.6z"/>
	<path class="st1" d="M381.9,281.5c-0.1,0.1-0.2,0.3-0.3,0.4s-0.1,0.3-0.2,0.4s-0.1,0.3-0.1,0.5c0,0.5,0.2,0.8,0.5,1.1
		s0.9,0.3,1.6,0.3c0.6,0,1.2-0.1,1.6-0.3s0.8-0.6,1.1-1s0.6-1.1,0.8-1.7s0.5-1.6,0.7-2.8l-0.1,0c-0.6,0.9-1.2,1.5-1.8,1.9
		s-1.1,0.6-1.7,0.6c-0.7,0-1.3-0.3-1.7-0.8s-0.6-1.3-0.6-2.3c0-0.7,0.1-1.4,0.3-2.1s0.5-1.3,0.8-1.9s0.7-1,1.1-1.4s0.9-0.7,1.4-0.8
		s1-0.3,1.5-0.3c0.4,0,0.8,0,1.2,0.1s0.7,0.3,1.1,0.5l0.9-0.6l0.6,0.2l-1,4.6c-0.1,0.3-0.1,0.7-0.2,1.1l-0.3,1.3
		c-0.3,1.5-0.5,2.6-0.7,3.2c-0.2,0.7-0.5,1.2-0.8,1.7c-0.3,0.4-0.6,0.8-1,1s-0.8,0.5-1.3,0.6s-1.1,0.2-1.8,0.2
		c-2.5,0-3.7-0.7-3.7-2.1c0-0.4,0.1-0.7,0.3-1s0.6-0.6,1.1-0.9L381.9,281.5z M384.7,279.6c0.3,0,0.7-0.1,1-0.3s0.7-0.6,1.1-1.1
		s0.7-1,0.9-1.4s0.4-1,0.5-1.7s0.2-1.3,0.2-1.7c0-0.5-0.1-0.9-0.3-1.1s-0.6-0.3-1.1-0.3c-0.3,0-0.5,0-0.8,0.1s-0.5,0.2-0.8,0.4
		s-0.5,0.5-0.7,0.8s-0.4,0.7-0.6,1.2s-0.3,1-0.4,1.5s-0.2,1.1-0.2,1.6c0,0.7,0.1,1.2,0.3,1.5S384.3,279.6,384.7,279.6z"/>
	<path class="st1" d="M397.8,273.6c-0.1-0.6-0.2-1-0.5-1.3s-0.7-0.4-1.2-0.4c-0.3,0-0.6,0.1-0.8,0.2s-0.4,0.3-0.6,0.5
		s-0.2,0.5-0.2,0.8c0,0.2,0,0.5,0.1,0.7s0.3,0.4,0.5,0.6s0.6,0.5,1,0.7c0.6,0.4,1.1,0.8,1.3,1.2s0.4,0.9,0.4,1.4
		c0,0.6-0.1,1.1-0.4,1.6s-0.7,0.7-1.2,1s-1.1,0.3-1.7,0.3c-0.6,0-1.1,0-1.6-0.1s-1-0.2-1.5-0.3l0.5-2.1h0.8c0,0.6,0.2,1,0.5,1.3
		s0.7,0.4,1.3,0.4c0.6,0,1-0.1,1.4-0.4s0.5-0.7,0.5-1.1c0-0.3,0-0.5-0.1-0.8s-0.3-0.4-0.5-0.6s-0.5-0.4-0.9-0.7
		c-0.4-0.3-0.7-0.5-1-0.8s-0.5-0.5-0.6-0.8s-0.2-0.6-0.2-1c0-0.5,0.1-1,0.4-1.4s0.6-0.7,1.1-0.9s1.1-0.3,1.7-0.3
		c1.1,0,2,0.1,2.8,0.4l-0.4,2H397.8z"/>
	<path class="st1" d="M401.2,280.2l-0.9,0.6l-0.6-0.2l2.5-11.2c0-0.2,0.1-0.4,0.1-0.7s0.1-0.6,0.1-0.7c0-0.3-0.1-0.5-0.2-0.6
		s-0.5-0.2-0.9-0.2l0.1-0.5l2.5-0.1h0.6l-1.7,6.8l0.1,0c0.6-0.8,1.2-1.5,1.8-1.8s1.1-0.6,1.7-0.6c0.7,0,1.3,0.3,1.7,0.8
		s0.6,1.3,0.6,2.3c0,0.7-0.1,1.4-0.3,2.1s-0.5,1.4-0.8,1.9s-0.7,1-1.1,1.4s-0.9,0.6-1.3,0.8s-1,0.3-1.5,0.3
		C402.7,280.8,401.9,280.6,401.2,280.2z M402.1,277.2c-0.1,0.3-0.1,0.5-0.1,0.7s0,0.4,0,0.6c0,0.5,0.1,0.9,0.3,1.1s0.6,0.3,1.1,0.3
		c0.3,0,0.6-0.1,0.9-0.2s0.5-0.3,0.8-0.6s0.5-0.6,0.7-0.9s0.4-0.8,0.5-1.2s0.3-0.9,0.4-1.4s0.1-0.9,0.1-1.4c0-0.7-0.1-1.2-0.3-1.5
		s-0.5-0.5-0.9-0.5c-0.3,0-0.6,0.1-0.9,0.3s-0.6,0.5-1,1s-0.7,0.9-0.9,1.4s-0.4,1.1-0.6,1.8L402.1,277.2z"/>
	<path class="st1" d="M413.4,280.8c-1,0-1.8-0.3-2.3-0.8s-0.8-1.4-0.8-2.4c0-0.4,0-0.8,0.1-1.4c0.1-0.7,0.3-1.3,0.5-1.8
		c0.3-0.7,0.7-1.2,1.1-1.7s1-0.8,1.6-1.1s1.2-0.4,1.9-0.4c0.7,0,1.4,0.1,1.8,0.4s0.8,0.7,1,1.2s0.3,1.1,0.3,1.7
		c0,0.6-0.1,1.2-0.2,1.9c-0.2,1-0.6,1.8-1,2.5s-1,1.2-1.7,1.5S414.3,280.8,413.4,280.8z M411.9,277.9c0,0.7,0.1,1.2,0.4,1.6
		s0.7,0.5,1.3,0.5c0.6,0,1.2-0.3,1.7-0.9s0.9-1.4,1.2-2.4s0.4-1.9,0.4-2.7c0-0.7-0.1-1.2-0.4-1.6s-0.7-0.5-1.3-0.5
		c-0.7,0-1.3,0.3-1.8,0.8s-0.9,1.4-1.2,2.4S411.9,277.2,411.9,277.9z"/>
	<path class="st1" d="M424.4,266.7h0.6l-2.5,11.5c-0.1,0.3-0.1,0.5-0.1,0.7s0,0.3,0,0.4c0,0.2,0,0.3,0.1,0.5s0.2,0.2,0.3,0.3
		s0.4,0.1,0.7,0.1l-0.1,0.5h-3l2.5-11.2c0.1-0.3,0.1-0.5,0.1-0.6s0-0.3,0.1-0.4s0-0.2,0-0.3c0-0.2,0-0.3-0.1-0.4s-0.2-0.2-0.3-0.2
		s-0.4-0.1-0.7-0.1l0.1-0.5L424.4,266.7z"/>
	<path class="st1" d="M433,271.8l0.9-0.6l0.6,0.2l-1.5,6.6c-0.1,0.4-0.2,0.7-0.2,0.9s0,0.4,0,0.5c0,0.3,0.1,0.5,0.2,0.6
		s0.4,0.2,0.9,0.2l-0.1,0.5H431l0.6-2.5l-0.1,0c-0.6,0.9-1.2,1.6-1.8,2s-1.2,0.6-1.8,0.6c-0.7,0-1.3-0.3-1.7-0.8s-0.6-1.3-0.6-2.3
		c0-0.6,0.1-1.3,0.2-1.9s0.4-1.2,0.6-1.8s0.6-1.1,1-1.5s0.9-0.8,1.4-1s1.1-0.4,1.7-0.4c0.4,0,0.8,0,1.2,0.1S432.6,271.5,433,271.8z
		 M432.1,274.7c0.1-0.3,0.1-0.5,0.1-0.7s0-0.4,0-0.6c0-0.5-0.1-0.9-0.3-1.1s-0.6-0.3-1.1-0.3c-0.3,0-0.5,0-0.8,0.1s-0.5,0.2-0.8,0.4
		s-0.5,0.5-0.7,0.8s-0.4,0.7-0.6,1.2s-0.3,1-0.4,1.5s-0.2,1.1-0.2,1.6c0,0.7,0.1,1.2,0.3,1.5s0.5,0.5,0.9,0.5c0.2,0,0.4,0,0.6-0.1
		s0.5-0.3,0.7-0.5s0.6-0.6,0.9-1.1c0.3-0.4,0.5-0.9,0.7-1.3s0.3-0.9,0.4-1.5L432.1,274.7z"/>
	<path class="st1" d="M436.4,281.5c-0.1,0.1-0.2,0.3-0.3,0.4s-0.1,0.3-0.2,0.4s-0.1,0.3-0.1,0.5c0,0.5,0.2,0.8,0.5,1.1
		s0.9,0.3,1.6,0.3c0.6,0,1.2-0.1,1.6-0.3s0.8-0.6,1.1-1s0.6-1.1,0.8-1.7s0.5-1.6,0.7-2.8l-0.1,0c-0.6,0.9-1.2,1.5-1.8,1.9
		s-1.1,0.6-1.7,0.6c-0.7,0-1.3-0.3-1.7-0.8s-0.6-1.3-0.6-2.3c0-0.7,0.1-1.4,0.3-2.1s0.5-1.3,0.8-1.9s0.7-1,1.1-1.4s0.9-0.7,1.4-0.8
		s1-0.3,1.5-0.3c0.4,0,0.8,0,1.2,0.1s0.7,0.3,1.1,0.5l0.9-0.6l0.6,0.2l-1,4.6c-0.1,0.3-0.1,0.7-0.2,1.1l-0.3,1.3
		c-0.3,1.5-0.5,2.6-0.7,3.2c-0.2,0.7-0.5,1.2-0.8,1.7c-0.3,0.4-0.6,0.8-1,1s-0.8,0.5-1.3,0.6s-1.1,0.2-1.8,0.2
		c-2.5,0-3.7-0.7-3.7-2.1c0-0.4,0.1-0.7,0.3-1s0.6-0.6,1.1-0.9L436.4,281.5z M439.2,279.6c0.3,0,0.7-0.1,1-0.3s0.7-0.6,1.1-1.1
		s0.7-1,0.9-1.4s0.4-1,0.5-1.7s0.2-1.3,0.2-1.7c0-0.5-0.1-0.9-0.3-1.1s-0.6-0.3-1.1-0.3c-0.3,0-0.5,0-0.8,0.1s-0.5,0.2-0.8,0.4
		s-0.5,0.5-0.7,0.8s-0.4,0.7-0.6,1.2s-0.3,1-0.4,1.5s-0.2,1.1-0.2,1.6c0,0.7,0.1,1.2,0.3,1.5S438.7,279.6,439.2,279.6z"/>
	<path class="st1" d="M453.6,278.7c-0.5,0.5-0.9,0.9-1.4,1.2s-0.9,0.5-1.3,0.7s-0.9,0.2-1.5,0.2c-0.5,0-1-0.1-1.3-0.2
		s-0.7-0.4-0.9-0.7s-0.4-0.6-0.5-1s-0.2-0.8-0.2-1.3c0-0.7,0.1-1.4,0.4-2.2s0.6-1.5,1.1-2.1s1.1-1.1,1.8-1.5s1.5-0.5,2.3-0.5
		c0.8,0,1.4,0.2,1.8,0.5s0.6,0.8,0.6,1.5c0,1.1-0.5,1.9-1.6,2.5s-2.6,0.8-4.6,0.8c-0.1,0.4-0.1,0.8-0.1,1.3c0,0.7,0.1,1.2,0.4,1.5
		s0.7,0.5,1.3,0.5c0.6,0,1.1-0.1,1.6-0.4s1-0.7,1.5-1.2L453.6,278.7z M448.4,275.6c0.6,0,1.1,0,1.6-0.1s0.8-0.1,1.2-0.3
		s0.6-0.2,0.8-0.4s0.4-0.3,0.5-0.5s0.2-0.4,0.3-0.6s0.1-0.4,0.1-0.6c0-0.4-0.1-0.7-0.3-0.9s-0.5-0.3-0.8-0.3c-0.5,0-0.9,0.2-1.3,0.5
		s-0.8,0.8-1.2,1.3S448.6,274.9,448.4,275.6z"/>
	<path class="st1" d="M461.4,278.8c-0.5,0.6-1.1,1.1-1.6,1.5s-1.1,0.5-1.7,0.5c-0.7,0-1.2-0.2-1.5-0.5s-0.5-0.9-0.5-1.5
		c0-0.4,0.1-0.9,0.2-1.4l1.2-5.1H456l0.1-0.5c0.4,0,0.7-0.1,0.9-0.2s0.4-0.3,0.6-0.5s0.3-0.5,0.4-0.8s0.3-0.8,0.5-1.4h1.3l-0.5,2.4
		h3.1l-0.2,1h-3.1l-0.9,3.8c-0.3,1.1-0.4,1.8-0.4,2.4c0,0.4,0.1,0.7,0.3,0.9s0.4,0.3,0.8,0.3c0.3,0,0.6-0.1,0.9-0.3s0.7-0.6,1.1-1
		L461.4,278.8z"/>
</g>
<g>
	<defs>
		<rect id="SVGID_3_" x="57.6" y="111.5" width="487.9" height="196.5"/>
	</defs>
	<clipPath id="SVGID_4_">
		<use xlink:href="#SVGID_3_"  style="overflow:visible;"/>
	</clipPath>
	<path class="st2" d="M273,205.6h12.3v8c3.4-4.7,8.1-9,16.3-9c7.7,0,13.1,3.7,15.9,9.2c4.4-5.6,10-9.2,18.1-9.2
		c11.6,0,18.7,7.3,18.7,20.1v33.5h-12.3v-29.8c0-8.4-4-12.8-10.8-12.8c-6.7,0-11.4,4.6-11.4,13v29.6h-12.3v-29.9
		c0-8.2-4.1-12.7-10.8-12.7c-6.8,0-11.4,5-11.4,13.1v29.5H273V205.6z"/>
	<path class="st2" d="M394.6,236.1c-3.1-1.2-7.5-2.1-12.3-2.1c-7.7,0-12.3,3.1-12.3,8.2v0.2c0,5,4.6,7.8,10.3,7.8
		c8.1,0,14.2-4.5,14.2-11V236.1z M394.3,258.1v-6.5c-3.6,4.3-9.2,7.6-17.3,7.6c-10.1,0-19-5.7-19-16.2v-0.2
		c0-11.6,9.2-17.2,21.7-17.2c6.5,0,10.6,0.9,14.8,2.2v-1c0-7.3-4.7-11.2-13.2-11.2c-6,0-10.4,1.3-15.3,3.3l-3.3-9.6
		c5.9-2.6,11.6-4.4,20.4-4.4c15.8,0,23.5,8.2,23.5,22.2v31.1H394.3z"/>
	<path class="st2" d="M413.5,205.6h12.3v8.2c3.4-5,8.4-9.2,16.7-9.2c12.1,0,19,8,19,20.2v33.4h-12.3v-29.8c0-8.2-4.2-12.8-11.4-12.8
		c-7.1,0-12.1,4.9-12.1,13v29.6h-12.3V205.6z"/>
	<path class="st3" d="M523.1,174.7c2.2-4.3,4.9-11.6,3.8-19.1c-1.9-12.2-10.2-20-24.9-23.2c-5-1.1-9.6-1.7-13.9-1.7
		c-9.1,0-16,2.6-19.5,7.4c-5.6,7.7-6.7,18.6-6.9,22.8c-5.7,1.5-17.5,5.1-19.7,9.2c-0.7,1.2-0.6,2.3-0.4,3c0.8,2.4,3.6,4.6,18.9,4.6
		c0.3,0,0.6,0,0.9,0c0.6,8.3,3.1,26.9,4.9,30.8c0.2,0.4,1,2.1,2.9,3.4l-0.5,0.9c-0.2,0.4-0.3,0.8-0.3,1.3
		c-4.6,3.4-11.7,11.2-11.9,21.1c-0.1,5.4,1.9,13.2,12.2,20.2c0.3,1.3,0.6,2.6,0.9,3.8c0.2,0.9,0.9,1.5,1.8,1.6l0.1,0
		c2.4,9.5,4.9,17.8,5.9,20.9c-2,2-3.4,2.7-3.4,2.7c-0.9,0.4-1.4,1.4-1.2,2.4c0.2,1,1.1,1.7,2.1,1.7h6.1c0.7,0,1.4-0.1,2-0.4
		c0.4,0.2,0.8,0.4,1.2,0.4h6.9c0.5,0,0.9-0.2,1.3-0.4c0.8,0.3,1.5,0.4,2.3,0.4h5.8c1,0,1.9-0.7,2.1-1.7c0.2-1-0.3-2-1.2-2.4
		c0,0-1.3-0.7-3.2-2.5l0.2-1.2c0.2-1.2,0.5-2.9,0.8-4.9c0.6-3.5,1.5-8.8,2.5-14.7c0.8-0.2,1.5-0.9,1.6-1.8c0.2-1,0.3-1.7,0.4-2.5
		l0.1-0.6c13.6-6.5,16.4-14.7,16.3-20.4c-0.2-10.1-9.2-19-17.7-23.3c0-0.2-0.1-0.4-0.2-0.6l-1.1-2.1c2.8-2.7,5.5-6.8,7.2-9.6
		c2,0.9,4.6,0.6,7.1-0.7c4.3-2.4,7.3-5.8,9.8-11.3c1.7-3.9,2.4-9.4-0.2-12.3C524.7,175.7,524.1,175.1,523.1,174.7"/>
	<path class="st4" d="M480.2,143h1.5c0.3,0,0.6,0,0.9,0.1c0.3,0,0.5,0.1,0.7,0.2c0.2,0.1,0.4,0.3,0.5,0.5c0.1,0.2,0.1,0.5,0.1,0.8
		c0,0.3-0.1,0.6-0.3,0.8c-0.2,0.2-0.3,0.4-0.6,0.5c-0.2,0.1-0.5,0.2-0.8,0.3c-0.3,0.1-0.6,0.1-0.9,0.1h-1.4L480.2,143z M479.6,149
		h1.7c0.7,0,1.4-0.1,2.1-0.2c0.7-0.2,1.3-0.4,1.8-0.7c0.5-0.3,1-0.8,1.3-1.3c0.4-0.6,0.6-1.2,0.6-2c0.1-0.8,0-1.5-0.2-2
		c-0.2-0.5-0.6-1-1-1.3c-0.5-0.3-1-0.6-1.7-0.7c-0.6-0.1-1.3-0.2-2.1-0.2h-5.1l-1.3,13.9h3.3L479.6,149z"/>
	<path class="st4" d="M498.7,191.1c-0.3-0.1-0.6,0-0.7,0.3c-0.1,0.3,0,0.6,0.3,0.7c0.3,0.1,0.6,0.3,0.8,0.5c0.3,0.2,0.4,0.4,0.4,0.7
		c0,0.3,0,0.6,0,0.9c0,0.3,0.2,0.5,0.5,0.6c0,0,0,0,0,0c0.3,0,0.5-0.2,0.5-0.5c0-0.4,0-1.5-0.3-2C499.9,191.7,499,191.3,498.7,191.1
		"/>
	<path class="st4" d="M497,194c0,0-4.2,5-13.2,6c-7.3,0.9-11.7-0.7-11.7-0.7c-0.3-0.1-0.6,0-0.7,0.3c-0.1,0.3,0,0.6,0.3,0.7
		c0.1,0.1,2.9,1.1,7.8,1.1c1.3,0,2.8-0.1,4.4-0.3c9.5-1.1,13.8-6.2,13.9-6.4c0.2-0.2,0.2-0.6-0.1-0.8
		C497.6,193.7,497.2,193.8,497,194"/>
	<path class="st4" d="M520.6,182.8c-5,0-6.3,4.3-6.3,4.4c0,0.1,0,0.3,0.1,0.4c0.1,0.1,0.2,0.2,0.4,0.2c0,0,2,0.3,1.9,1.6
		c-0.1,1-2.4,1.6-3.5,1.7c-0.3,0-0.5,0.3-0.5,0.6c0,0.3,0.3,0.5,0.5,0.5c0,0,0,0,0.1,0c0.4,0,4.2-0.5,4.4-2.6
		c0.1-1.5-1.1-2.3-2.1-2.6c0.5-1,1.8-3,5-3c0.3,0,0.5-0.2,0.5-0.5C521.1,183,520.9,182.8,520.6,182.8"/>
	<path class="st4" d="M501.3,231c0,1.2-2.5,2.6-6.1,2.6c-3.6,0-6.1-1.4-6.1-2.6c0-1.2,2.5-2.6,6.1-2.6
		C498.8,228.4,501.3,229.7,501.3,231 M488,231c0,2.1,3.2,3.7,7.2,3.7c4,0,7.2-1.6,7.2-3.7s-3.2-3.7-7.2-3.7
		C491.2,227.3,488,228.9,488,231"/>
	<path class="st4" d="M522.3,187c-2.1,4.7-4.7,7.8-8.4,9.8c-2,1.1-3.9,1.1-4.8,0.2c-0.1-0.2-0.3-0.4-0.4-0.6
		c-0.2-0.4-0.3-0.9-0.2-1.5c0-0.3-0.2-0.6-0.5-0.6c-0.3,0-0.6,0.2-0.6,0.5c0,0.2,0,0.4,0,0.6c-1.9,3.6-7.5,12.8-11.1,14
		c-4.8,1.6-12.2,1.6-16.2,1.4c-0.7,0-1.3-0.1-1.9-0.4c-0.7-0.3-1-0.6-1.1-0.8c-0.8-1-1.2-1.9-1.4-2.4c-0.1-0.3-0.4-0.4-0.7-0.3
		c-0.3,0.1-0.4,0.4-0.3,0.7c0.1,0.3,0.5,1.4,0.8,1.8c0.1,0.2,0.3,0.4,0.5,0.7c-0.8,0-1.5,0-2.3-0.1c-1,0-1.9-0.3-2.5-0.7
		c-1.4-0.8-1.9-2-1.9-2.1c0,0,0,0,0-0.1c-0.2-0.4-0.4-1-0.6-1.8c-0.1-0.2-0.4-1.6-0.5-2c-1.5-6.9-3.3-20.5-3.7-26.8
		c0.4,0,2.8-0.1,6.3-0.2c-0.6,0.4-1.1,0.9-1.6,1.5c-0.8,1.2-1.2,2.8-1,4.4c0.3,3.2,2.6,5.6,5.3,5.6c0.1,0,0.3,0,0.4,0
		c0.2,0,0.5-0.1,0.7-0.1c-0.7,0.7-1.4,1.2-2,1.7c-1,0.8-1.7,1.4-1.7,2.1c0,0.7,0.4,1.5,1.1,2.2c1.2,1.1,2.9,1.7,4.9,1.7
		c0.3,0,0.6,0,0.9,0c0.3,0,0.5-0.3,0.5-0.6c0-0.3-0.3-0.5-0.6-0.5c-2.9,0.2-4.5-0.9-5-1.4c-0.6-0.5-0.8-1.1-0.8-1.4
		c0-0.2,0.7-0.8,1.3-1.3c0.8-0.6,1.8-1.5,2.8-2.6c0.7-0.8,1.5-1.8,1.9-3c0.2-0.5,0.4-1.7,0.4-2c0-0.5,0-0.9,0-1.4
		c-0.2-2.4-1.6-4.3-3.3-5.2c3.2-0.2,6.9-0.4,10.6-0.8c0.5,0,1.1-0.1,1.6-0.2c-0.6,0.4-1.1,0.9-1.6,1.6c-0.9,1.4-1.3,3.1-1.1,4.8
		c0.3,3.4,2.9,6.1,5.7,6.1c0.2,0,0.3,0,0.5,0c1.5-0.1,2.8-1,3.8-2.4c0.9-1.4,1.3-3.1,1.1-4.8c-0.3-2.7-1.9-5-4-5.8
		c1-0.1,2.1-0.2,3.1-0.4c0.6,0.4,1.2,1,1.7,1.7c0.1,0.2,0.3,0.2,0.4,0.2c0.1,0,0.2,0,0.3-0.1c0.2-0.2,0.3-0.5,0.1-0.8
		c-0.3-0.5-0.7-0.9-1.1-1.3c6.5-0.8,11.7-1.6,12.7-1.8c1.8,5-0.7,12.9-6,17.2c-0.2,0.1-0.1,0.4,0.1,0.6c0.1,0.1,0.3,0.2,0.4,0.2
		c0,0,0.1,0,0.1,0l6.4-1c0.2,0,0.3-0.1,0.4-0.3c0-0.1,4.5-7.5,9-10.7c0.3-0.2,0.9-0.6,1.8-0.8c1-0.1,1.4,0.3,1.6,0.5
		C524,179.7,523.8,183.6,522.3,187 M492.4,212.6c1.7-0.2,3.3-0.6,4.6-1c0.4-0.1,0.8-0.3,1.1-0.5c0,0,0.7,1.3,0.8,1.5
		c0.1,0.2,0.1,0.2-0.1,0.5c-0.1,0.2-3.2,5-3.2,5L492.4,212.6z M484.9,217.4l1.9-4.3c1.2-0.1,2.5-0.1,3.8-0.3l-3.1,7.6L484.9,217.4z
		 M508.8,220.8C508.8,220.8,508.8,220.8,508.8,220.8c4.6,4.2,8.1,9.6,8.2,15.2c0.1,6.9-5,12.9-14.7,17.5c2.4-15.1,4.3-23,4.3-23.1
		c0.1-0.3-0.1-0.6-0.4-0.7c-0.3-0.1-0.6,0.1-0.7,0.4c0,0.1-2,8.4-4.5,24.2c0,0-0.5,2.8-0.6,3.6c0,0,0,0.2-0.2,0.2
		c-1.9,0.1-6.6,0.4-13.7,0.4c-0.3,0-0.5,0-0.7,0c-0.3-5.1-0.6-10.7-0.8-16.2c0,0,0,0,0,0c-0.1-2.6-0.2-5.1-0.3-7.6c0,0,0,0,0,0
		l0-0.2c0-0.9-0.1-1.8-0.1-2.7h0l-0.1-1.7l7-17l3.7,5.9c0.1,0.2,0.3,0.3,0.5,0.3h0c0.2,0,0.4-0.1,0.5-0.2l2.9-4.6
		C502.4,216,505.8,218.2,508.8,220.8 M497.2,285.4h-2.3c-1.5,0-2.6-1.1-2.6-1.1c-0.3-0.3-0.7-0.4-1.1-0.3c-0.4,0.1-0.7,0.4-0.7,0.8
		l-0.1,0.5h-2V283c0.7,0.2,1.9,0.4,3.7,0.4c1.2,0,2.1-0.1,2.9-0.2c0,0,0,0,0,0C495.8,284.1,496.5,284.8,497.2,285.4 M487.7,282.5
		C487.7,282.5,487.7,282.5,487.7,282.5c-0.3,0-0.6-0.2-0.6-0.5l-1.5-14.3c-0.7,0-1.3-0.1-1.3-0.1c-0.3,0-0.5-0.3-0.5-0.6
		c0-0.3,0.3-0.5,0.6-0.5c0,0,0.9,0.1,1.8,0.1c0.9,0,1.7-0.1,1.7-0.1c0.3,0,0.6,0.2,0.6,0.5c0,0.3-0.2,0.6-0.5,0.6
		c0,0-0.7,0.1-1.4,0.1l1.5,13.7l0.1,0.5C488.2,282.2,488,282.5,487.7,282.5 M487.2,285.4h-2l-0.1-0.5c-0.1-0.4-0.4-0.7-0.8-0.8
		c-0.4-0.1-0.8,0-1.1,0.3c0,0-0.9,1-2.2,1h-2.7c0.7-0.6,1.4-1.3,2.2-2.1c0,0,0.1-0.1,0.1-0.1c1,0.1,2.3,0.3,3.7,0.3
		c1.3,0,2.2-0.1,2.8-0.3V285.4z M476,212.3c0.3,0,0.7,0,1,0c0.2,0.1,0.4,0.2,0.7,0.3c0,0,0,0,0.1,0c0.2,0.1,0.4,0.1,0.7,0.2
		c0,0,0,0,0.1,0c0.3,0.1,0.5,0.1,0.8,0.2l2.3,4.4l-2,2.4L476,212.3z M471.8,213.9c0-0.1,1.1-1.7,1.1-1.7c0.3,0,0.5,0.1,0.8,0.1
		c0.4,0,0.8,0,1.2,0l0.7,1.5l-2.5,3.8c0,0-1.2-2.9-1.3-3.2C471.6,214.1,471.7,214,471.8,213.9 M473,258c-0.3,0-0.3,0-0.3-0.2
		c-0.3-1.2-0.6-2.4-0.8-3.5l-0.1-0.4c0,0,0-0.1,0-0.1c-3.5-15.3-4.2-22.9-4.2-23c0-0.3-0.3-0.5-0.6-0.5c-0.3,0-0.5,0.3-0.5,0.6
		c0,0.1,0.6,7.3,3.9,21.8c-3.8-2.6-6.6-5.5-8.3-8.6c-0.1-0.2-0.4-0.8-0.5-1c-1.2-2.4-1.7-5-1.7-7.7c0.2-7.9,5.9-15.6,11.5-19.2
		l1.1,2.8c0.1,0.2,0.2,0.3,0.4,0.3c0,0,0,0,0.1,0c0.2,0,0.3-0.1,0.4-0.2l2.7-4.1l7.4,15.5l0.2,4.4c0.3,7.7,0.7,16.3,1.1,23.9
		C479,258.5,475,258.2,473,258 M473.7,181.5c0.1,0.7-0.4,1.2-1.1,1.3c-0.4,0-0.8-0.1-1.1-0.5c-0.1,0.4-0.1,0.9-0.1,1.4
		c0.2,1.5,1,2.7,2.2,3.2c-2.2,0.1-4.1-2-4.3-4.6c-0.1-1.4,0.2-2.7,0.9-3.7c0.7-1,1.6-1.6,2.7-1.7c0.1,0,0.2,0,0.3,0
		c2.1,0,3.9,2,4.2,4.6c0,0.4,0,0.7,0,1.1c-0.4-1.7-1.7-2.9-3.2-2.8c-0.6,0.1-1,0.3-1.5,0.7C473.2,180.5,473.6,180.9,473.7,181.5
		 M490.5,180.8c0.1,0.7-0.5,1.4-1.2,1.4c-0.5,0-0.9-0.2-1.2-0.5c-0.1,0.5-0.1,1-0.1,1.5c0.2,1.7,1.2,3.1,2.6,3.6
		c-2.5,0.2-4.7-2.1-5-5.2c-0.1-1.5,0.2-3,1-4.1c0.7-1.1,1.8-1.8,3-1.9c0.1,0,0.2,0,0.4,0c2.3,0,4.4,2.3,4.7,5.2c0,0.5,0,0.9,0,1.4
		c-0.4-2-1.9-3.4-3.6-3.3c-0.6,0.1-1.2,0.3-1.6,0.7C490,179.6,490.5,180.1,490.5,180.8 M444.8,172.2c0-0.1-0.1-0.2,0.1-0.5
		c1.4-2.6,11.2-5.9,18-7.7c0.3-0.1,1.5-0.4,1.5-0.4s0.2,0,0.4,0c4.8-0.4,25.4-1.8,40.6,2.6c3,0.9,5.4,2.1,7.2,3.5
		c-3.4,0.6-11.2,1.9-19.6,2.9l-7.6,0.8c-0.3,0-0.7,0.1-1,0.1c-8.5,0.6-15.5,1-21.3,1.1C446.4,174.8,444.9,172.6,444.8,172.2
		 M472,146.6l0.8-8.2c0-0.2,0.2-0.4,0.4-0.5c0,0,0.3,0,0.6-0.1c1.1-0.2,4.2-0.5,8-0.5c5,0,9.1,0.6,9.1,0.6c0,0,0.1,0,0.1,0
		c0.1,0,0.1,0.1,0.2,0.1c0.1,0.1,0.2,0.3,0.1,0.4l-0.8,8.2c-0.9,9.9-10.3,13.2-10.4,13.3c-0.1,0-0.1,0-0.2,0c0,0-0.1,0-0.1,0
		C479.5,159.8,471.1,156.3,472,146.6 M501.3,135.6c13.2,2.9,20.8,9.8,22.4,20.5c1.2,8.1-3,16.4-4.7,19.4c-1.3-2.5-4.5-7.3-11.8-9.8
		c1-4.3,4.8-24.2-8-30.5C499.9,135.3,500.6,135.5,501.3,135.6 M521.4,175.5c2.1-3.8,5.6-11.7,4.4-19.7c-1.8-11.7-9.9-19.2-24.1-22.3
		c-15.3-3.4-27.4-1.4-32.3,5.3c-5.9,8.1-6.6,19.8-6.7,23c-3.8,1-17.6,4.8-19.9,8.9c-0.5,0.9-0.4,1.7-0.3,2.2
		c0.6,1.8,3.2,3.8,17.8,3.8c0.6,0,1.2,0,1.9,0c0.5,7.6,3.1,27.6,4.9,31.5c0.1,0.3,0.9,2.1,3,3.2c0.1,0.1,0.3,0.1,0.4,0.2l-1.1,1.9
		c-0.2,0.4-0.2,0.8,0.1,1.2c-2.6,1.8-5.7,4.7-8.1,8.4c-0.3,0.5-1.3,2.3-1.5,2.7c-1.4,2.9-2.4,6.1-2.5,9.6
		c-0.1,5.2,1.9,12.8,12.1,19.5c0.3,1.4,0.7,2.8,1,4.2c0.1,0.4,0.5,0.7,0.9,0.8c0.5,0.1,0.8,0.1,0.8,0.1c2.7,10.6,5.5,19.9,6.2,22.2
		c-2.4,2.5-4.2,3.4-4.2,3.4c-0.5,0.2-0.7,0.7-0.6,1.2c0.1,0.5,0.5,0.8,1.1,0.8h6.1c0.9,0,1.7-0.3,2.3-0.6c0.2,0.4,0.5,0.6,1,0.6h6.9
		c0.4,0,0.8-0.3,1-0.7c0.7,0.4,1.6,0.7,2.6,0.7h5.8c0.5,0,0.9-0.3,1.1-0.8c0.1-0.5-0.1-1-0.6-1.2c0,0-1.5-0.8-3.6-2.8
		c-0.1-0.1-0.3-0.3-0.3-0.3l0.3-1.8c0.2-1.2,0.5-2.9,0.8-4.9c0.6-3.7,1.6-9.3,2.6-15.5c0,0,0,0,0,0c0.3,0,0.5,0,0.5,0
		c0.5,0,0.9-0.4,1-0.9c0.2-1,0.3-1.7,0.4-2.5l0.2-1.1c7.6-3.5,11.8-7.5,14-11.3c0.2-0.3,0.5-0.8,0.8-1.4c1.2-2.5,1.5-4.9,1.5-6.9
		c-0.2-9.5-9-18.5-17.7-22.7c0.1-0.3,0.1-0.6-0.1-0.8l-1.5-2.8c0.7-0.7,1.5-1.4,2.2-2.3c0,0,0,0,0,0c2.4-2.8,4.6-6.3,5.9-8.6
		c0.8,0.6,1.8,0.9,3,0.9c1.2,0,2.6-0.4,4-1.1c4.1-2.2,7-5.6,9.3-10.8c1.6-3.7,2.2-8.7,0-11.1C523.8,176.3,522.9,175.5,521.4,175.5"
		/>
</g>
</svg>
